<svg width="158" height="48" viewBox="0 0 158 48" fill="none" xmlns="http://www.w3.org/2000/svg">
<path fill-rule="evenodd" clip-rule="evenodd" d="M33.2196 39.8845L32.2233 40.8376C31.545 40.1217 30.7826 39.7632 29.9358 39.7632C29.2188 39.7632 28.6165 40.0084 28.127 40.4973C27.6374 40.9857 27.3926 41.5885 27.3926 42.3054C27.3926 42.8042 27.4998 43.2475 27.7175 43.6332C27.9342 44.0215 28.2416 44.3253 28.6378 44.5467C29.035 44.7674 29.4756 44.8769 29.9598 44.8769C30.3729 44.8769 30.7516 44.7997 31.095 44.645C31.4369 44.4908 31.8138 44.2104 32.2233 43.8021L33.1905 44.8101C32.6364 45.3513 32.1143 45.7255 31.6228 45.9339C31.1319 46.1428 30.5709 46.2473 29.9395 46.2473C28.7781 46.2473 27.8247 45.8786 27.0833 45.1391C26.3443 44.4002 25.9726 43.4545 25.9726 42.2999C25.9726 41.5523 26.141 40.888 26.4791 40.3068C26.8165 39.7264 27.2991 39.2606 27.9291 38.9074C28.5567 38.5543 29.2342 38.3774 29.9598 38.3774C30.5778 38.3774 31.1714 38.5075 31.7434 38.7701C32.3141 39.0309 32.8074 39.4035 33.2196 39.8845ZM36.9122 40.3734C37.4346 40.3734 37.9259 40.5055 38.3856 40.7665C38.844 41.0273 39.2034 41.3836 39.4605 41.8309C39.7191 42.279 39.847 42.7626 39.847 43.2826C39.847 43.8057 39.7172 44.2941 39.4585 44.7496C39.1985 45.2054 38.8456 45.5604 38.3979 45.8178C37.9497 46.073 37.4574 46.2017 36.9171 46.2017C36.1239 46.2017 35.4468 45.9187 34.8855 45.3531C34.3256 44.7879 34.0444 44.1011 34.0444 43.2928C34.0444 42.4269 34.3622 41.705 34.9954 41.128C35.5513 40.6252 36.1901 40.3734 36.9122 40.3734ZM36.9335 41.6826C36.5028 41.6826 36.1434 41.8343 35.8573 42.1347C35.5706 42.4359 35.4285 42.8198 35.4285 43.2874C35.4285 43.7711 35.5684 44.1602 35.8532 44.4598C36.1366 44.7588 36.4942 44.9079 36.9276 44.9079C37.362 44.9079 37.7232 44.757 38.0109 44.4546C38.2989 44.1516 38.4433 43.7643 38.4433 43.2874C38.4433 42.8128 38.3024 42.4273 38.02 42.1295C37.7353 41.8327 37.3737 41.6826 36.9335 41.6826ZM40.9709 40.5159H42.3652V41.1542C42.6022 40.8916 42.8663 40.6965 43.1563 40.5682C43.4461 40.4395 43.7624 40.3732 44.1036 40.3732C44.4498 40.3732 44.7616 40.4585 45.0391 40.6288C45.3175 40.7991 45.5412 41.0461 45.7109 41.3728C45.9318 41.0461 46.2025 40.7991 46.5221 40.6288C46.8429 40.4585 47.1916 40.3732 47.5722 40.3732C47.9665 40.3732 48.3116 40.4655 48.6104 40.6502C48.909 40.8326 49.1226 41.0727 49.2528 41.3678C49.3843 41.6638 49.4488 42.1437 49.4488 42.8092V46.0592H48.0514V43.2475C48.0514 42.6177 47.9737 42.1944 47.8172 41.9712C47.6607 41.749 47.426 41.6374 47.1159 41.6374C46.878 41.6374 46.665 41.705 46.4773 41.8411C46.2882 41.9768 46.1487 42.1645 46.0571 42.4045C45.9651 42.6441 45.9199 43.0286 45.9199 43.5586V46.0592H44.5205V43.3744C44.5205 42.8785 44.4841 42.5194 44.411 42.2962C44.3383 42.0739 44.2288 41.9086 44.0834 41.8007C43.9374 41.691 43.7622 41.6374 43.555 41.6374C43.3245 41.6374 43.1146 41.7068 42.9269 41.8445C42.7396 41.9818 42.5975 42.1748 42.5049 42.4217C42.4116 42.6705 42.365 43.0596 42.365 43.5936V46.0592H40.9707L40.9709 40.5159ZM50.7663 40.5159H52.1707V43.1867C52.1707 43.7051 52.2056 44.0665 52.2769 44.2685C52.3492 44.47 52.4623 44.6283 52.6202 44.7392C52.7784 44.8523 52.9727 44.9079 53.2037 44.9079C53.4346 44.9079 53.6289 44.8525 53.7903 44.7428C53.9513 44.6319 54.0719 44.4702 54.1497 44.2561C54.2068 44.0962 54.2349 43.7555 54.2349 43.2321V40.5161H55.6291V42.8649C55.6291 43.8336 55.5523 44.4962 55.3995 44.8525C55.2136 45.2876 54.9394 45.6213 54.5767 45.8524C54.2136 46.0852 53.7521 46.2021 53.1929 46.2021C52.5855 46.2021 52.0965 46.0664 51.7213 45.7952C51.3457 45.5222 51.0817 45.1451 50.9294 44.6584C50.8219 44.3221 50.7661 43.7101 50.7661 42.8252L50.7663 40.5159ZM57.0226 40.5159H58.4064V41.0832C58.7225 40.8166 59.0068 40.6326 59.2641 40.5298C59.519 40.4253 59.7814 40.3734 60.0482 40.3734C60.5986 40.3734 61.0638 40.5666 61.4475 40.9505C61.7701 41.2755 61.9297 41.758 61.9297 42.3971V46.0592H60.557V43.6296C60.557 42.9673 60.5272 42.5276 60.4682 42.3103C60.4093 42.0933 60.3048 41.928 60.1571 41.8129C60.0104 41.6998 59.8295 41.6426 59.6128 41.6426C59.3294 41.6426 59.0881 41.7368 58.8872 41.9256C58.6857 42.1137 58.5453 42.3747 58.467 42.7067C58.4265 42.8805 58.4062 43.2567 58.4062 43.8334V46.0592H57.0224L57.0226 40.5159ZM63.8186 38.2345C64.0616 38.2345 64.2719 38.3234 64.4471 38.4989C64.6206 38.6766 64.7071 38.8906 64.7071 39.1403C64.7071 39.3895 64.6223 39.6013 64.4489 39.7752C64.2754 39.9511 64.0683 40.0378 63.8291 40.0378C63.5806 40.0378 63.369 39.9495 63.1955 39.77C63.0197 39.5927 62.9332 39.3757 62.9332 39.1217C62.9332 38.8764 63.0197 38.6676 63.1922 38.4937C63.3657 38.3217 63.5738 38.2345 63.8186 38.2345ZM63.1211 40.5159H64.5144V46.0592H63.1211V40.5159ZM71.1858 41.6374L70.0313 42.274C69.8145 42.0459 69.6015 41.8897 69.3889 41.8007C69.1772 41.7124 68.9287 41.6686 68.6444 41.6686C68.1254 41.6686 67.7052 41.8237 67.384 42.1345C67.0652 42.4442 66.9055 42.8425 66.9055 43.3294C66.9055 43.8005 67.0577 44.1866 67.367 44.4852C67.6754 44.7845 68.0804 44.9342 68.5818 44.9342C69.2035 44.9342 69.6863 44.7202 70.0313 44.2963L71.125 45.0452C70.5314 45.8152 69.6949 46.2019 68.613 46.2019C67.6393 46.2019 66.8773 45.9129 66.3269 45.3356C65.7765 44.7588 65.5009 44.0823 65.5009 43.3082C65.5009 42.7716 65.6344 42.2776 65.9016 41.8257C66.1708 41.375 66.5436 41.0201 67.0227 40.7613C67.5035 40.5039 68.04 40.3734 68.6337 40.3734C69.1823 40.3734 69.6756 40.4835 70.1131 40.7023C70.5503 40.9212 70.9077 41.2343 71.1858 41.6374ZM76.5269 40.5159H77.9107V46.0592H76.5269V45.4732C76.2564 45.7321 75.9835 45.9161 75.7115 46.0314C75.4372 46.1446 75.1422 46.2017 74.8223 46.2017C74.1073 46.2017 73.4889 45.9231 72.967 45.3687C72.4443 44.8139 72.1839 44.124 72.1839 43.2976C72.1839 42.442 72.4355 41.7418 72.9412 41.194C73.446 40.6484 74.0607 40.3732 74.7828 40.3732C75.1141 40.3732 75.4265 40.4377 75.7183 40.563C76.0095 40.6877 76.2792 40.8776 76.5267 41.1282L76.5269 40.5159ZM75.0673 41.6586C74.6366 41.6586 74.2796 41.8095 73.9948 42.1137C73.7095 42.4183 73.5678 42.8076 73.5678 43.2824C73.5678 43.7623 73.7115 44.1548 74.0017 44.4642C74.2915 44.7742 74.6491 44.9288 75.073 44.9288C75.5101 44.9288 75.8728 44.7758 76.1609 44.4712C76.4493 44.1692 76.5934 43.7709 76.5934 43.2772C76.5934 42.7954 76.4493 42.4045 76.1609 42.1067C75.8728 41.8077 75.5082 41.6586 75.0673 41.6586ZM84.7292 41.6374L83.5747 42.274C83.358 42.0459 83.144 41.8897 82.9327 41.8007C82.721 41.7124 82.4725 41.6686 82.1882 41.6686C81.6686 41.6686 81.2486 41.8237 80.9278 42.1345C80.6084 42.4442 80.4488 42.8425 80.4488 43.3294C80.4488 43.8005 80.601 44.1866 80.9103 44.4852C81.2196 44.7845 81.6236 44.9342 82.1254 44.9342C82.7466 44.9342 83.2293 44.7202 83.5745 44.2963L84.6682 45.0452C84.0746 45.8152 83.2381 46.2019 82.1566 46.2019C81.1825 46.2019 80.4205 45.9129 79.8701 45.3356C79.3203 44.7588 79.0438 44.0823 79.0438 43.3082C79.0438 42.7716 79.1777 42.2776 79.4454 41.8257C79.7142 41.375 80.0874 41.0201 80.5665 40.7613C81.0473 40.5039 81.5838 40.3734 82.1775 40.3734C82.7255 40.3734 83.2188 40.4835 83.6563 40.7023C84.0939 40.9212 84.4517 41.2343 84.7292 41.6374ZM81.5109 45.9769H82.37L82.3092 46.2123C82.5351 46.2627 82.7142 46.3618 82.8454 46.5101C82.9762 46.6574 83.0405 46.8187 83.0405 46.9967C83.0405 47.2711 82.9259 47.5078 82.6949 47.704C82.464 47.9025 82.1445 48 81.7331 48C81.4018 48 81.0249 47.9217 80.6049 47.7646L80.7889 47.1096C81.0319 47.186 81.2716 47.2258 81.5057 47.2258C81.6774 47.2258 81.8062 47.1932 81.8914 47.1264C81.976 47.0605 82.0192 46.9718 82.0192 46.8638C82.0192 46.7749 81.9865 46.7056 81.9222 46.6554C81.8582 46.603 81.7555 46.579 81.6166 46.579L81.3322 46.5894L81.5109 45.9769ZM90.0703 40.5159H91.4541V46.0592H90.0703V45.4732C89.7998 45.7321 89.5277 45.9161 89.2545 46.0314C88.9807 46.1446 88.6858 46.2017 88.366 46.2017C87.6509 46.2017 87.0329 45.9231 86.5102 45.3687C85.9879 44.8139 85.7275 44.124 85.7275 43.2976C85.7275 42.442 85.9791 41.7418 86.4841 41.194C86.9898 40.6484 87.6041 40.3732 88.3266 40.3732C88.6579 40.3732 88.9703 40.4377 89.2621 40.563C89.5538 40.6877 89.822 40.8776 90.0705 41.1282L90.0703 40.5159ZM88.6111 41.6586C88.18 41.6586 87.8224 41.8095 87.5381 42.1137C87.2527 42.4183 87.111 42.8076 87.111 43.2824C87.111 43.7623 87.2551 44.1548 87.5449 44.4642C87.8347 44.7742 88.1923 44.9288 88.6162 44.9288C89.0537 44.9288 89.4161 44.7758 89.7045 44.4712C89.9926 44.1692 90.1366 43.7709 90.1366 43.2772C90.1366 42.7954 89.9926 42.4045 89.7045 42.1067C89.4161 41.8077 89.052 41.6586 88.6111 41.6586ZM87.1561 39.483L86.5965 38.6414C87.0309 38.3059 87.4704 38.137 87.9148 38.137C88.0795 38.137 88.3638 38.1967 88.7684 38.3113C89.0432 38.3858 89.2617 38.4226 89.4246 38.4226C89.71 38.4226 90.0048 38.3354 90.3081 38.1582L90.8372 38.9526C90.4106 39.3201 89.998 39.5022 89.5961 39.5022C89.3831 39.5022 89.1276 39.457 88.83 39.3653C88.5843 39.2937 88.4301 39.2518 88.3658 39.238C88.2779 39.2242 88.1738 39.2172 88.0514 39.2172C87.7528 39.2172 87.4548 39.3063 87.1561 39.483ZM95.4555 40.3732C95.9782 40.3732 96.4687 40.5053 96.9293 40.7663C97.3871 41.0271 97.7464 41.3834 98.0037 41.8307C98.2619 42.2788 98.3908 42.7624 98.3908 43.2824C98.3908 43.8055 98.26 44.2939 98.0019 44.7494C97.7416 45.2052 97.389 45.5602 96.9417 45.8176C96.4935 46.0728 96.0002 46.2015 95.4605 46.2015C94.6667 46.2015 93.9904 45.9185 93.4293 45.3529C92.8688 44.7877 92.5872 44.1008 92.5872 43.2926C92.5872 42.4267 92.9051 41.7048 93.5392 41.1278C94.0941 40.625 94.7332 40.3732 95.4555 40.3732ZM95.4761 41.6824C95.0454 41.6824 94.686 41.8341 94.3999 42.1345C94.1136 42.4357 93.9709 42.8196 93.9709 43.2872C93.9709 43.7709 94.1119 44.16 94.3962 44.4596C94.6792 44.7586 95.0368 44.9077 95.471 44.9077C95.9049 44.9077 96.2652 44.7568 96.5543 44.4544C96.8423 44.1514 96.9864 43.7641 96.9864 43.2872C96.9864 42.8126 96.8454 42.4271 96.5621 42.1293C96.2777 41.8325 95.9164 41.6824 95.4761 41.6824ZM102.022 38.5647H103.487L105.369 43.8888L107.274 38.5647H108.74L106.044 46.0592H104.671L102.022 38.5647ZM110.277 38.2343C110.519 38.2343 110.729 38.3233 110.904 38.4987C111.079 38.6764 111.165 38.8904 111.165 39.1401C111.165 39.3893 111.08 39.6011 110.906 39.775C110.732 39.9509 110.526 40.0376 110.287 40.0376C110.038 40.0376 109.827 39.9493 109.653 39.7698C109.477 39.5925 109.391 39.3755 109.391 39.1215C109.391 38.8763 109.477 38.6674 109.65 38.4935C109.823 38.3214 110.031 38.2343 110.277 38.2343ZM109.578 40.5157H110.972V46.059H109.578V40.5157ZM115.614 41.2915L114.755 42.1523C114.406 41.8059 114.09 41.6322 113.806 41.6322C113.65 41.6322 113.526 41.6648 113.439 41.7316C113.351 41.7975 113.305 41.8811 113.305 41.9786C113.305 42.0531 113.335 42.1225 113.39 42.1848C113.446 42.2482 113.585 42.3331 113.806 42.4423L114.312 42.6967C114.848 42.9623 115.216 43.2319 115.416 43.5067C115.616 43.7811 115.717 44.1046 115.717 44.4748C115.717 44.9676 115.536 45.3775 115.175 45.7081C114.814 46.0366 114.33 46.2017 113.724 46.2017C112.916 46.2017 112.273 45.8853 111.79 45.2538L112.645 44.3217C112.807 44.5115 112.998 44.6662 113.217 44.7828C113.435 44.8997 113.63 44.9586 113.8 44.9586C113.982 44.9586 114.129 44.9149 114.241 44.8259C114.354 44.737 114.41 44.6361 114.41 44.5199C114.41 44.3063 114.207 44.0974 113.805 43.8938L113.336 43.6594C112.441 43.2069 111.995 42.6423 111.995 41.964C111.995 41.5263 112.163 41.1506 112.5 40.8406C112.836 40.5294 113.269 40.373 113.795 40.373C114.154 40.373 114.49 40.4531 114.808 40.6114C115.126 40.7697 115.395 40.9957 115.614 41.2913L115.614 41.2915ZM116.805 40.5157H118.209V43.1865C118.209 43.7049 118.244 44.0663 118.315 44.2683C118.388 44.4698 118.501 44.6281 118.659 44.739C118.817 44.8521 119.011 44.9077 119.242 44.9077C119.473 44.9077 119.667 44.8523 119.828 44.7426C119.99 44.6317 120.11 44.47 120.188 44.2559C120.245 44.096 120.273 43.7553 120.273 43.2319V40.5159H121.667V42.8647C121.667 43.8334 121.59 44.496 121.438 44.8523C121.252 45.2874 120.978 45.6211 120.615 45.8522C120.252 46.085 119.791 46.2019 119.231 46.2019C118.624 46.2019 118.135 46.0662 117.759 45.795C117.384 45.522 117.12 45.1449 116.968 44.6582C116.86 44.3219 116.805 43.7099 116.805 42.825L116.805 40.5157ZM127.15 40.5157H128.534V46.059H127.15V45.473C126.88 45.7319 126.608 45.9159 126.335 46.0312C126.061 46.1444 125.766 46.2015 125.446 46.2015C124.731 46.2015 124.113 45.9229 123.59 45.3685C123.068 44.8137 122.808 44.1238 122.808 43.2974C122.808 42.4419 123.059 41.7416 123.564 41.1938C124.069 40.6482 124.684 40.373 125.407 40.373C125.738 40.373 126.05 40.4375 126.342 40.5628C126.634 40.6875 126.903 40.8774 127.151 41.128L127.15 40.5157ZM125.691 41.6584C125.26 41.6584 124.903 41.8093 124.618 42.1135C124.334 42.4181 124.191 42.8074 124.191 43.2822C124.191 43.7621 124.335 44.1546 124.625 44.464C124.915 44.774 125.272 44.9286 125.696 44.9286C126.134 44.9286 126.496 44.7755 126.784 44.471C127.072 44.169 127.216 43.7707 127.216 43.2771C127.216 42.7952 127.072 42.4043 126.784 42.1065C126.496 41.8075 126.132 41.6584 125.691 41.6584ZM129.789 38.3772H131.178V46.059H129.789V38.3772Z" fill="#DFE2F2"/>
<path d="M8.24599 3.55561L20.5334 20.7936V3.392C20.5334 2.26133 20.7979 1.41702 21.3196 0.85169C21.8414 0.286357 22.5467 0.000410955 23.4435 0.000410955C24.3621 0.000410955 25.0822 0.27938 25.6187 0.844714C26.1479 1.41005 26.4124 2.26133 26.4124 3.392V26.3984C26.4124 28.9665 25.2659 30.2466 22.9659 30.2466C22.3926 30.2466 21.8784 30.1719 21.415 30.0152C20.9598 29.8652 20.5258 29.6203 20.1218 29.2863C19.7249 28.9595 19.3499 28.5643 19.0049 28.1218C18.6592 27.6792 18.3142 27.2228 17.9685 26.7526L5.98238 9.71926V26.855C5.98238 27.9721 5.70289 28.8162 5.14454 29.3887C4.58578 29.9606 3.8657 30.2466 2.99129 30.2466C2.08749 30.2466 1.3596 29.9606 0.81605 29.3817C0.272086 28.8029 0 27.9586 0 26.8552V4.29132C0 3.33083 0.117753 2.58177 0.345655 2.03656C0.61774 1.43735 1.06574 0.947151 1.69765 0.565745C2.32999 0.190909 3.01307 0.000410955 3.74836 0.000410955C4.3213 0.000410955 4.80649 0.0888774 5.21811 0.259052C5.62974 0.429432 5.98957 0.667763 6.29803 0.960694C6.60711 1.25321 6.91556 1.62805 7.23882 2.09793C7.56207 2.56124 7.90033 3.04488 8.24599 3.55561ZM53.0305 26.4327L51.5237 22.7618H38.6928L37.1861 26.5144C36.5907 27.9785 36.0913 28.9663 35.6721 29.477C35.2605 29.9877 34.577 30.2464 33.629 30.2464C32.8282 30.2464 32.1151 29.974 31.498 29.429C30.8808 28.8844 30.5718 28.2644 30.5718 27.5698C30.5718 27.1748 30.6453 26.7593 30.7849 26.3371C30.932 25.908 31.1669 25.3156 31.498 24.5598L39.5742 5.56486C39.8021 5.01985 40.0816 4.36604 40.4048 3.60323C40.7281 2.83364 41.0661 2.20015 41.4336 1.69599C41.801 1.19224 42.2862 0.783537 42.8816 0.470283C43.4769 0.15703 44.2118 0.000410955 45.0862 0.000410955C45.9754 0.000410955 46.7177 0.15703 47.313 0.470283C47.9083 0.783537 48.3929 1.18527 48.7604 1.67568C49.1206 2.16629 49.4293 2.69734 49.6866 3.26268C49.9362 3.82801 50.2523 4.58383 50.6421 5.524L58.8875 24.4034C59.534 25.8403 59.8579 26.8825 59.8579 27.5361C59.8579 28.21 59.5488 28.83 58.9389 29.3953C58.3294 29.9606 57.5941 30.2466 56.7343 30.2466C56.2345 30.2466 55.8009 30.1647 55.441 29.9945C55.0808 29.8313 54.7793 29.6065 54.5368 29.3206C54.2947 29.0346 54.0298 28.5916 53.7506 27.999C53.4715 27.4068 53.2288 26.8891 53.0305 26.4327ZM40.3681 18.3144H49.8043L45.042 6.24597L40.3681 18.3144ZM81.1701 5.3875H74.1956V26.6368C74.1956 27.8559 73.9017 28.7688 73.314 29.3614C72.7258 29.9536 71.9616 30.2466 71.0282 30.2466C70.0874 30.2466 69.3159 29.9471 68.7206 29.3479C68.1252 28.7483 67.8238 27.8424 67.8238 26.637V5.38771H60.8498C59.7547 5.38771 58.9467 5.16292 58.4173 4.72035C57.881 4.27079 57.6161 3.68514 57.6161 2.94963C57.6161 2.1938 57.8955 1.59418 58.4467 1.15817C58.9979 0.715595 59.7987 0.497797 60.8496 0.497797H81.1697C82.2792 0.497797 83.0951 0.72257 83.6386 1.1789C84.175 1.62846 84.4471 2.22069 84.4471 2.94963C84.4471 3.68514 84.168 4.27079 83.624 4.72035C83.0805 5.16292 82.2644 5.38771 81.1697 5.38771L81.1701 5.3875ZM88.4893 26.6368V3.58948C88.4893 2.39764 88.7836 1.49873 89.3713 0.89911C89.9595 0.299906 90.7237 0.000200466 91.6571 0.000200466C92.6123 0.000200466 93.3913 0.292723 93.9865 0.885359C94.5818 1.47799 94.8831 2.38388 94.8831 3.58927V26.6366C94.8831 27.842 94.5816 28.7479 93.9865 29.3475C93.3911 29.9467 92.6121 30.2462 91.6571 30.2462C90.7381 30.2462 89.9814 29.9467 89.3861 29.3403C88.7908 28.7341 88.4893 27.8352 88.4893 26.6364V26.6368ZM106.707 3.88897L113.858 23.5038L121.023 3.75308C121.398 2.71088 121.677 1.98893 121.868 1.5872C122.052 1.17849 122.361 0.817407 122.794 0.4904C123.221 0.163599 123.808 0.000200466 124.558 0.000200466C125.102 0.000200466 125.609 0.129527 126.072 0.381607C126.542 0.633277 126.91 0.967265 127.174 1.38952C127.439 1.8048 127.571 2.22725 127.571 2.65608C127.571 2.94901 127.527 3.26226 127.439 3.60282C127.358 3.94337 127.248 4.27017 127.116 4.59718C126.991 4.92398 126.859 5.25797 126.734 5.60509L119.091 24.7228C118.811 25.4517 118.539 26.1464 118.268 26.8067C117.996 27.4606 117.679 28.0394 117.32 28.5436C116.967 29.0408 116.489 29.4495 115.894 29.7693C115.291 30.0895 114.563 30.2462 113.704 30.2462C112.844 30.2462 112.116 30.0895 111.521 29.7763C110.926 29.463 110.441 29.0543 110.074 28.5436C109.714 28.0259 109.39 27.4468 109.118 26.793C108.846 26.1462 108.574 25.4515 108.303 24.7226L100.784 5.76849C100.66 5.42096 100.52 5.08041 100.388 4.74704C100.248 4.41305 100.138 4.05894 100.042 3.67097C99.9467 3.28258 99.9025 2.96256 99.9025 2.69037C99.9025 2.01603 100.196 1.39609 100.784 0.837738C101.372 0.278973 102.115 0 103.004 0C104.091 0 104.863 0.306271 105.318 0.926003C105.767 1.54594 106.23 2.53353 106.707 3.88856L106.707 3.88897ZM150.323 26.4325L148.817 22.7616H135.986L134.479 26.5142C133.884 27.9783 133.384 28.9661 132.965 29.4768C132.553 29.9875 131.87 30.2462 130.922 30.2462C130.121 30.2462 129.408 29.9738 128.791 29.4288C128.174 28.8842 127.865 28.2642 127.865 27.5696C127.865 27.1746 127.938 26.7591 128.078 26.3369C128.225 25.9078 128.46 25.3154 128.791 24.5596L136.867 5.56465C137.095 5.01964 137.374 4.36584 137.698 3.60303C138.021 2.83344 138.359 2.19995 138.726 1.69579C139.094 1.19204 139.579 0.783336 140.174 0.470083C140.77 0.15683 141.505 0.000200466 142.379 0.000200466C143.268 0.000200466 144.011 0.15683 144.606 0.470083C145.201 0.783336 145.686 1.18506 146.053 1.67547C146.413 2.16608 146.722 2.69713 146.979 3.26247C147.229 3.8278 147.545 4.58363 147.935 5.5238L156.18 24.4032C156.827 25.8401 157.151 26.8823 157.151 27.5359C157.151 28.2098 156.842 28.8298 156.232 29.3951C155.622 29.9604 154.887 30.2464 154.027 30.2464C153.527 30.2464 153.094 30.1645 152.734 29.9943C152.374 29.8311 152.072 29.6063 151.829 29.3204C151.587 29.0344 151.322 28.5914 151.043 27.9988C150.764 27.4066 150.522 26.8889 150.323 26.4325ZM137.661 18.3142H147.097L142.335 6.24576L137.661 18.3142Z" fill="#DFE2F2"/>
</svg>
