<svg width="304" height="321" viewBox="0 0 304 321" fill="none" xmlns="http://www.w3.org/2000/svg">
<path fill-rule="evenodd" clip-rule="evenodd" d="M64.2616 305.278L62.3343 307.125C61.0222 305.738 59.5474 305.043 57.9092 305.043C56.5222 305.043 55.3572 305.518 54.4102 306.465C53.4631 307.412 52.9896 308.579 52.9896 309.968C52.9896 310.934 53.197 311.793 53.6181 312.54C54.0373 313.293 54.6319 313.881 55.3983 314.31C56.1667 314.738 57.0191 314.95 57.9556 314.95C58.7549 314.95 59.4874 314.8 60.1517 314.501C60.813 314.202 61.5421 313.659 62.3343 312.868L64.2054 314.82C63.1335 315.869 62.1235 316.594 61.1727 316.997C60.223 317.402 59.1379 317.605 57.9164 317.605C55.6698 317.605 53.8254 316.89 52.3913 315.458C50.9616 314.026 50.2427 312.194 50.2427 309.958C50.2427 308.509 50.5684 307.222 51.2225 306.096C51.8751 304.972 52.8086 304.07 54.0275 303.385C55.2415 302.701 56.552 302.359 57.9556 302.359C59.1511 302.359 60.2995 302.611 61.4061 303.119C62.5099 303.625 63.4642 304.346 64.2616 305.278ZM71.4048 306.225C72.4152 306.225 73.3657 306.481 74.2551 306.987C75.1418 307.492 75.837 308.182 76.3343 309.049C76.8346 309.917 77.0819 310.854 77.0819 311.861C77.0819 312.874 76.8308 313.821 76.3305 314.703C75.8276 315.586 75.1448 316.274 74.2788 316.773C73.4117 317.267 72.4593 317.516 71.4143 317.516C69.8798 317.516 68.5701 316.968 67.4843 315.872C66.4011 314.777 65.8571 313.447 65.8571 311.881C65.8571 310.203 66.472 308.805 67.6969 307.687C68.7721 306.713 70.008 306.225 71.4048 306.225ZM71.4459 308.762C70.6127 308.762 69.9175 309.056 69.3641 309.637C68.8095 310.221 68.5346 310.965 68.5346 311.871C68.5346 312.808 68.8053 313.561 69.3561 314.142C69.9043 314.721 70.5961 315.01 71.4346 315.01C72.275 315.01 72.9736 314.717 73.5301 314.132C74.0873 313.545 74.3667 312.794 74.3667 311.871C74.3667 310.951 74.0941 310.204 73.5478 309.627C72.997 309.052 72.2976 308.762 71.4459 308.762ZM79.2561 306.501H81.9533V307.738C82.4118 307.229 82.9226 306.851 83.4836 306.603C84.0442 306.353 84.6561 306.225 85.3163 306.225C85.9858 306.225 86.5891 306.39 87.1259 306.72C87.6643 307.05 88.0971 307.529 88.4255 308.162C88.8526 307.529 89.3763 307.05 89.9946 306.72C90.6152 306.39 91.2897 306.225 92.026 306.225C92.7887 306.225 93.4564 306.404 94.0343 306.762C94.6119 307.115 95.0251 307.58 95.277 308.152C95.5314 308.725 95.6562 309.655 95.6562 310.944V317.24H92.953V311.793C92.953 310.573 92.8026 309.753 92.4999 309.321C92.1971 308.89 91.7432 308.674 91.1434 308.674C90.6831 308.674 90.271 308.805 89.9079 309.069C89.5422 309.332 89.2723 309.695 89.0951 310.16C88.9171 310.624 88.8297 311.369 88.8297 312.396V317.24H86.1227V312.039C86.1227 311.078 86.0522 310.383 85.9108 309.95C85.7702 309.52 85.5583 309.199 85.277 308.99C84.9947 308.778 84.6557 308.674 84.255 308.674C83.809 308.674 83.4029 308.808 83.0398 309.075C82.6775 309.341 82.4027 309.715 82.2236 310.193C82.043 310.675 81.9529 311.429 81.9529 312.464V317.24H79.2558L79.2561 306.501ZM98.2048 306.501H100.922V311.675C100.922 312.68 100.989 313.38 101.127 313.771C101.267 314.161 101.486 314.468 101.791 314.683C102.097 314.902 102.473 315.01 102.92 315.01C103.367 315.01 103.742 314.902 104.055 314.69C104.366 314.475 104.599 314.162 104.75 313.747C104.86 313.437 104.915 312.777 104.915 311.763V306.502H107.612V311.052C107.612 312.929 107.463 314.212 107.168 314.902C106.808 315.745 106.277 316.392 105.576 316.84C104.873 317.291 103.981 317.517 102.899 317.517C101.724 317.517 100.778 317.254 100.052 316.729C99.3257 316.2 98.8149 315.469 98.5204 314.527C98.3123 313.875 98.2045 312.689 98.2045 310.975L98.2048 306.501ZM110.307 306.501H112.984V307.6C113.596 307.084 114.146 306.727 114.643 306.528C115.137 306.326 115.644 306.225 116.16 306.225C117.225 306.225 118.125 306.6 118.867 307.343C119.491 307.973 119.8 308.908 119.8 310.146V317.24H117.145V312.533C117.145 311.25 117.087 310.399 116.973 309.978C116.859 309.557 116.657 309.237 116.371 309.014C116.087 308.795 115.737 308.684 115.318 308.684C114.77 308.684 114.303 308.867 113.914 309.232C113.524 309.597 113.253 310.102 113.101 310.745C113.023 311.082 112.984 311.811 112.984 312.928V317.24H110.307L110.307 306.501ZM123.454 302.082C123.924 302.082 124.331 302.254 124.67 302.594C125.005 302.938 125.173 303.353 125.173 303.836C125.173 304.319 125.009 304.73 124.673 305.066C124.338 305.407 123.937 305.575 123.474 305.575C122.993 305.575 122.584 305.404 122.249 305.056C121.908 304.713 121.741 304.293 121.741 303.8C121.741 303.325 121.908 302.921 122.242 302.584C122.578 302.251 122.98 302.082 123.454 302.082ZM122.104 306.501H124.8V317.24H122.104V306.501ZM137.705 308.674L135.472 309.907C135.053 309.465 134.641 309.163 134.229 308.99C133.82 308.819 133.339 308.735 132.789 308.735C131.785 308.735 130.972 309.035 130.351 309.637C129.734 310.237 129.425 311.009 129.425 311.952C129.425 312.864 129.72 313.612 130.318 314.191C130.915 314.771 131.698 315.061 132.668 315.061C133.871 315.061 134.805 314.646 135.472 313.825L137.588 315.276C136.439 316.767 134.821 317.517 132.728 317.517C130.845 317.517 129.371 316.957 128.306 315.838C127.241 314.721 126.708 313.41 126.708 311.911C126.708 310.871 126.966 309.914 127.483 309.039C128.004 308.166 128.725 307.478 129.652 306.977C130.582 306.478 131.62 306.225 132.768 306.225C133.83 306.225 134.784 306.439 135.63 306.863C136.476 307.286 137.167 307.893 137.705 308.674ZM148.037 306.501H150.714V317.24H148.037V316.105C147.514 316.606 146.986 316.963 146.46 317.186C145.93 317.406 145.359 317.516 144.74 317.516C143.357 317.516 142.16 316.977 141.151 315.903C140.14 314.828 139.636 313.491 139.636 311.89C139.636 310.233 140.123 308.876 141.101 307.815C142.078 306.758 143.267 306.225 144.663 306.225C145.304 306.225 145.909 306.35 146.473 306.593C147.036 306.834 147.558 307.202 148.037 307.688L148.037 306.501ZM145.214 308.715C144.381 308.715 143.69 309.007 143.139 309.597C142.587 310.187 142.313 310.941 142.313 311.861C142.313 312.79 142.591 313.551 143.152 314.15C143.713 314.751 144.405 315.05 145.225 315.05C146.071 315.05 146.772 314.754 147.329 314.164C147.887 313.579 148.166 312.807 148.166 311.851C148.166 310.917 147.887 310.16 147.329 309.583C146.772 309.004 146.067 308.715 145.214 308.715ZM163.904 308.674L161.671 309.907C161.252 309.465 160.838 309.163 160.429 308.99C160.02 308.819 159.539 308.735 158.989 308.735C157.984 308.735 157.171 309.035 156.551 309.637C155.933 310.237 155.624 311.009 155.624 311.952C155.624 312.864 155.918 313.612 156.517 314.191C157.115 314.771 157.897 315.061 158.867 315.061C160.069 315.061 161.003 314.646 161.671 313.825L163.786 315.276C162.638 316.767 161.02 317.517 158.928 317.517C157.043 317.517 155.569 316.957 154.505 315.838C153.441 314.721 152.906 313.41 152.906 311.911C152.906 310.871 153.165 309.914 153.683 309.039C154.203 308.166 154.925 307.478 155.852 306.977C156.782 306.478 157.82 306.225 158.968 306.225C160.028 306.225 160.983 306.439 161.829 306.863C162.675 307.286 163.368 307.893 163.904 308.674ZM157.679 317.081H159.341L159.223 317.537C159.66 317.634 160.006 317.826 160.26 318.114C160.513 318.399 160.638 318.711 160.638 319.056C160.638 319.588 160.416 320.046 159.969 320.427C159.522 320.811 158.904 321 158.109 321C157.468 321 156.738 320.848 155.926 320.544L156.282 319.275C156.752 319.423 157.216 319.5 157.669 319.5C158.001 319.5 158.25 319.437 158.415 319.308C158.578 319.18 158.662 319.008 158.662 318.799C158.662 318.627 158.599 318.492 158.474 318.395C158.351 318.294 158.152 318.247 157.883 318.247L157.333 318.267L157.679 317.081ZM174.236 306.501H176.913V317.24H174.236V316.105C173.713 316.606 173.187 316.963 172.658 317.186C172.129 317.406 171.558 317.516 170.939 317.516C169.556 317.516 168.361 316.977 167.35 315.903C166.339 314.828 165.835 313.491 165.835 311.89C165.835 310.233 166.322 308.876 167.299 307.815C168.277 306.758 169.466 306.225 170.863 306.225C171.504 306.225 172.109 306.35 172.673 306.593C173.237 306.834 173.756 307.202 174.237 307.688L174.236 306.501ZM171.414 308.715C170.58 308.715 169.888 309.007 169.338 309.597C168.786 310.187 168.512 310.941 168.512 311.861C168.512 312.79 168.79 313.551 169.351 314.15C169.912 314.751 170.604 315.05 171.424 315.05C172.27 315.05 172.971 314.754 173.529 314.164C174.086 313.579 174.365 312.807 174.365 311.851C174.365 310.917 174.086 310.16 173.529 309.583C172.971 309.004 172.267 308.715 171.414 308.715ZM168.599 304.5L167.517 302.87C168.357 302.22 169.207 301.893 170.067 301.893C170.385 301.893 170.935 302.009 171.718 302.23C172.25 302.375 172.672 302.446 172.987 302.446C173.539 302.446 174.11 302.277 174.696 301.934L175.72 303.473C174.895 304.185 174.097 304.538 173.319 304.538C172.907 304.538 172.413 304.45 171.837 304.272C171.362 304.134 171.064 304.052 170.939 304.026C170.769 303.999 170.568 303.986 170.331 303.986C169.753 303.986 169.177 304.158 168.599 304.5ZM184.654 306.225C185.665 306.225 186.614 306.481 187.505 306.986C188.39 307.492 189.086 308.182 189.583 309.048C190.083 309.917 190.332 310.853 190.332 311.861C190.332 312.874 190.079 313.82 189.58 314.703C189.076 315.586 188.394 316.273 187.529 316.772C186.662 317.267 185.707 317.516 184.663 317.516C183.128 317.516 181.82 316.968 180.734 315.872C179.65 314.777 179.105 313.446 179.105 311.881C179.105 310.203 179.72 308.805 180.947 307.687C182.02 306.713 183.257 306.225 184.654 306.225ZM184.694 308.761C183.86 308.761 183.165 309.055 182.612 309.637C182.058 310.22 181.782 310.964 181.782 311.87C181.782 312.807 182.055 313.561 182.605 314.141C183.152 314.721 183.844 315.009 184.684 315.009C185.523 315.009 186.22 314.717 186.779 314.131C187.337 313.544 187.615 312.794 187.615 311.87C187.615 310.951 187.343 310.204 186.794 309.627C186.244 309.052 185.545 308.761 184.694 308.761ZM197.356 302.721H200.191L203.83 313.036L207.517 302.721H210.352L205.137 317.24H202.481L197.356 302.721ZM213.324 302.081C213.793 302.081 214.2 302.254 214.538 302.594C214.876 302.938 215.042 303.352 215.042 303.836C215.042 304.319 214.879 304.729 214.542 305.066C214.206 305.407 213.807 305.575 213.344 305.575C212.864 305.575 212.454 305.404 212.119 305.056C211.778 304.713 211.611 304.292 211.611 303.8C211.611 303.325 211.778 302.92 212.112 302.584C212.447 302.25 212.85 302.081 213.324 302.081ZM211.974 306.501H214.669V317.24H211.974V306.501ZM223.65 308.004L221.987 309.671C221.313 309.001 220.701 308.664 220.151 308.664C219.849 308.664 219.611 308.727 219.442 308.856C219.271 308.984 219.183 309.146 219.183 309.335C219.183 309.479 219.241 309.614 219.348 309.735C219.456 309.857 219.725 310.022 220.151 310.233L221.13 310.726C222.168 311.241 222.88 311.763 223.266 312.295C223.654 312.827 223.848 313.454 223.848 314.171C223.848 315.126 223.499 315.92 222.8 316.56C222.101 317.196 221.165 317.516 219.992 317.516C218.431 317.516 217.186 316.903 216.252 315.68L217.907 313.874C218.22 314.242 218.589 314.542 219.012 314.767C219.435 314.994 219.811 315.108 220.14 315.108C220.493 315.108 220.777 315.023 220.994 314.851C221.212 314.679 221.319 314.483 221.319 314.258C221.319 313.844 220.928 313.44 220.151 313.045L219.244 312.591C217.511 311.715 216.648 310.621 216.648 309.307C216.648 308.459 216.974 307.731 217.625 307.13C218.276 306.528 219.112 306.225 220.13 306.225C220.825 306.225 221.476 306.38 222.091 306.686C222.706 306.993 223.226 307.431 223.649 308.004L223.65 308.004ZM225.954 306.501H228.67V311.675C228.67 312.679 228.737 313.379 228.874 313.771C229.016 314.161 229.233 314.468 229.54 314.683C229.846 314.902 230.221 315.009 230.668 315.009C231.115 315.009 231.49 314.902 231.802 314.69C232.114 314.475 232.346 314.161 232.497 313.747C232.608 313.437 232.663 312.777 232.663 311.763V306.501H235.358V311.052C235.358 312.928 235.21 314.212 234.916 314.902C234.556 315.745 234.026 316.392 233.324 316.839C232.622 317.29 231.729 317.517 230.647 317.517C229.472 317.517 228.526 317.254 227.8 316.728C227.074 316.2 226.563 315.469 226.268 314.526C226.06 313.875 225.953 312.689 225.953 310.975L225.954 306.501ZM245.966 306.501H248.643V317.24H245.966V316.105C245.443 316.606 244.916 316.963 244.389 317.186C243.858 317.405 243.287 317.516 242.669 317.516C241.286 317.516 240.09 316.976 239.079 315.902C238.069 314.827 237.565 313.491 237.565 311.89C237.565 310.232 238.052 308.876 239.029 307.815C240.006 306.758 241.195 306.225 242.593 306.225C243.234 306.225 243.838 306.35 244.402 306.592C244.967 306.834 245.487 307.202 245.966 307.687L245.966 306.501ZM243.143 308.715C242.31 308.715 241.618 309.007 241.067 309.596C240.517 310.186 240.241 310.941 240.241 311.861C240.241 312.79 240.519 313.551 241.081 314.15C241.641 314.75 242.333 315.05 243.153 315.05C243.999 315.05 244.7 314.753 245.257 314.163C245.815 313.578 246.094 312.807 246.094 311.85C246.094 310.917 245.815 310.16 245.257 309.583C244.7 309.004 243.996 308.715 243.143 308.715ZM251.07 302.358H253.757V317.24H251.07V302.358Z" fill="#DFE2F2"/>
<path d="M15.9514 234.9L39.7208 268.294V234.583C39.7208 232.393 40.2324 230.757 41.2417 229.662C42.2511 228.567 43.6154 228.013 45.3503 228.013C47.1272 228.013 48.5202 228.553 49.5581 229.648C50.5818 230.744 51.0934 232.393 51.0934 234.583V279.152C51.0934 284.127 48.8756 286.607 44.4264 286.607C43.3173 286.607 42.3226 286.462 41.4262 286.159C40.5457 285.868 39.7061 285.394 38.9245 284.747C38.1569 284.114 37.4314 283.348 36.7639 282.491C36.0953 281.633 35.4278 280.749 34.7592 279.838L11.5726 246.841V280.037C11.5726 282.201 11.032 283.836 9.95186 284.945C8.87097 286.053 7.47801 286.607 5.7865 286.607C4.03815 286.607 2.63008 286.053 1.57861 284.932C0.526336 283.81 0 282.175 0 280.037V236.325C0 234.465 0.227787 233.013 0.668652 231.957C1.19499 230.796 2.06161 229.847 3.28403 229.108C4.50724 228.382 5.82864 228.013 7.25102 228.013C8.35934 228.013 9.29792 228.184 10.0942 228.514C10.8904 228.844 11.5865 229.306 12.1832 229.873C12.7811 230.44 13.3778 231.166 14.0031 232.076C14.6284 232.974 15.2828 233.911 15.9514 234.9ZM102.585 279.219L99.6701 272.107H74.8492L71.9345 279.377C70.7829 282.213 69.8169 284.127 69.0059 285.116C68.2096 286.106 66.8874 286.607 65.0536 286.607C63.5044 286.607 62.125 286.079 60.9312 285.023C59.7374 283.968 59.1395 282.767 59.1395 281.421C59.1395 280.656 59.2818 279.851 59.5517 279.033C59.8364 278.202 60.2908 277.055 60.9312 275.59L76.5543 238.792C76.9951 237.737 77.5358 236.47 78.1611 234.992C78.7864 233.501 79.4404 232.274 80.1511 231.297C80.8619 230.322 81.8005 229.53 82.9522 228.923C84.1038 228.316 85.5254 228.013 87.2169 228.013C88.937 228.013 90.3729 228.316 91.5246 228.923C92.6762 229.53 93.6136 230.308 94.3244 231.258C95.0213 232.209 95.6184 233.237 96.1161 234.333C96.5991 235.428 97.2105 236.892 97.9646 238.713L113.915 275.287C115.166 278.071 115.792 280.09 115.792 281.356C115.792 282.662 115.194 283.863 114.014 284.958C112.835 286.053 111.413 286.607 109.75 286.607C108.783 286.607 107.944 286.448 107.248 286.119C106.551 285.803 105.968 285.367 105.499 284.813C105.03 284.259 104.518 283.401 103.978 282.253C103.438 281.106 102.968 280.103 102.585 279.219ZM78.0899 263.492H96.3439L87.1314 240.112L78.0899 263.492ZM157.019 238.449H143.528V279.614C143.528 281.976 142.959 283.744 141.822 284.892C140.684 286.04 139.206 286.607 137.4 286.607C135.58 286.607 134.088 286.027 132.936 284.866C131.785 283.705 131.202 281.95 131.202 279.614V238.449H117.711C115.592 238.449 114.029 238.014 113.005 237.156C111.968 236.286 111.455 235.151 111.455 233.726C111.455 232.262 111.996 231.1 113.062 230.256C114.128 229.398 115.678 228.976 117.711 228.976H157.019C159.165 228.976 160.743 229.412 161.795 230.296C162.832 231.167 163.359 232.314 163.359 233.726C163.359 235.151 162.819 236.286 161.766 237.156C160.715 238.014 159.136 238.449 157.019 238.449L157.019 238.449ZM171.178 279.614V234.966C171.178 232.657 171.747 230.915 172.884 229.754C174.022 228.593 175.5 228.012 177.306 228.012C179.154 228.012 180.661 228.579 181.812 229.727C182.964 230.875 183.546 232.63 183.546 234.965V279.614C183.546 281.949 182.963 283.704 181.812 284.865C180.66 286.026 179.153 286.606 177.306 286.606C175.528 286.606 174.064 286.026 172.913 284.851C171.761 283.677 171.178 281.936 171.178 279.613V279.614ZM206.42 235.546L220.252 273.545L234.113 235.283C234.839 233.264 235.379 231.865 235.748 231.087C236.103 230.295 236.7 229.595 237.54 228.962C238.364 228.329 239.501 228.012 240.951 228.012C242.003 228.012 242.984 228.263 243.88 228.751C244.79 229.239 245.501 229.886 246.012 230.704C246.525 231.508 246.78 232.327 246.78 233.157C246.78 233.725 246.695 234.332 246.525 234.991C246.368 235.651 246.154 236.284 245.899 236.918C245.657 237.551 245.402 238.198 245.16 238.87L230.375 275.906C229.835 277.318 229.308 278.664 228.783 279.943C228.256 281.21 227.645 282.331 226.949 283.308C226.267 284.271 225.342 285.063 224.19 285.683C223.025 286.303 221.617 286.606 219.954 286.606C218.291 286.606 216.883 286.303 215.732 285.696C214.58 285.089 213.643 284.297 212.932 283.308C212.235 282.305 211.61 281.183 211.084 279.917C210.557 278.664 210.031 277.318 209.506 275.906L194.962 239.187C194.721 238.514 194.45 237.854 194.195 237.208C193.925 236.561 193.711 235.875 193.526 235.124C193.342 234.371 193.256 233.751 193.256 233.224C193.256 231.917 193.825 230.716 194.962 229.635C196.099 228.552 197.536 228.012 199.255 228.012C201.359 228.012 202.852 228.605 203.733 229.806C204.601 231.007 205.496 232.92 206.42 235.545L206.42 235.546ZM290.793 279.218L287.878 272.107H263.057L260.142 279.377C258.991 282.213 258.025 284.126 257.214 285.116C256.418 286.105 255.095 286.606 253.262 286.606C251.712 286.606 250.333 286.079 249.139 285.023C247.945 283.968 247.347 282.767 247.347 281.421C247.347 280.656 247.49 279.851 247.76 279.033C248.044 278.202 248.499 277.054 249.139 275.59L264.762 238.792C265.203 237.736 265.744 236.47 266.369 234.992C266.994 233.501 267.648 232.274 268.359 231.297C269.07 230.321 270.008 229.529 271.16 228.923C272.312 228.316 273.733 228.012 275.425 228.012C277.145 228.012 278.581 228.316 279.733 228.923C280.884 229.529 281.822 230.308 282.532 231.258C283.229 232.208 283.826 233.237 284.324 234.332C284.807 235.427 285.419 236.892 286.173 238.713L302.123 275.287C303.373 278.071 304 280.09 304 281.356C304 282.661 303.402 283.862 302.222 284.958C301.043 286.053 299.621 286.607 297.957 286.607C296.991 286.607 296.152 286.448 295.456 286.118C294.759 285.802 294.176 285.367 293.706 284.813C293.238 284.259 292.726 283.401 292.186 282.253C291.646 281.105 291.176 280.102 290.793 279.218ZM266.298 263.491H284.552L275.339 240.112L266.298 263.491Z" fill="#DFE2F2"/>
<path fill-rule="evenodd" clip-rule="evenodd" d="M173.492 133.718C179.081 131.868 183.562 129.218 186.942 125.758C187.543 124.934 187.543 124.11 186.942 123.286C184.898 121.613 183.265 119.851 182.03 118C181.322 114.965 182.936 113.627 186.866 113.982C187.822 113.671 187.974 113.272 187.316 112.778C186.278 110.008 181.531 109.038 174.245 109.298C159.004 112.378 151.883 109.811 146.515 101.471L144.502 98.1118C125.475 82.5649 101.233 91.9955 112.259 119.585C115.582 125.441 121.152 130.157 130.02 133.192C129.431 133.617 143.077 127.501 173.492 133.718ZM149.762 123.755C143.135 120.833 137.09 117.842 133.14 114.584C130.773 110.724 128.805 106.693 127.247 102.478C127.095 100.387 130.817 101.864 136.311 104.951C125.95 95.7791 119.975 95.4115 120.899 108.899C122.405 104.082 123.791 101.382 124.899 103.347C126.564 107.53 128.583 111.453 131.248 114.921C136.324 119.179 142.762 121.759 149.762 123.755Z" fill="#DFE2F2"/>
<path fill-rule="evenodd" clip-rule="evenodd" d="M240.427 164.895C240.534 164.587 240.653 164.281 240.786 163.978L240.427 164.895Z" fill="#DFE2F2"/>
<path fill-rule="evenodd" clip-rule="evenodd" d="M259.589 105.226C259.566 105.362 259.541 105.498 259.516 105.635L259.589 105.226Z" fill="#DFE2F2"/>
<path fill-rule="evenodd" clip-rule="evenodd" d="M192.105 109.738C191.897 109.655 191.46 110.118 191.137 110.771C190.82 111.423 190.731 112.019 190.947 112.101C191.162 112.184 191.599 111.721 191.916 111.068C192.238 110.415 192.321 109.82 192.105 109.738Z" fill="#DFE2F2"/>
<path fill-rule="evenodd" clip-rule="evenodd" d="M206.038 119.646C208.893 124.945 188.062 121.56 193.733 117.504L185.352 115.298C183.669 115.52 183.086 116.369 183.618 117.84C187.328 123.854 197.392 129.026 208.981 126.396C214.095 122.726 212.399 120.641 206.038 119.646Z" fill="#DFE2F2"/>
<path fill-rule="evenodd" clip-rule="evenodd" d="M192.631 107.088L191.688 107.253C191.093 107.361 190.377 109.832 188.896 111.264L188.858 111.93L189.611 112.399C190.213 110.46 191.295 108.786 192.706 107.291L192.631 107.088Z" fill="#DFE2F2"/>
<path fill-rule="evenodd" clip-rule="evenodd" d="M194.739 105.985L197.461 103.78C199.106 103.045 199.056 104.477 197.834 107.392C196.752 110.371 194.625 112.798 192.023 114.972L191.118 114.941L191.08 113.901C192.992 112.608 194.593 110.764 195.498 107.69C195.694 106.834 195.448 106.264 194.739 105.985Z" fill="#DFE2F2"/>
<path fill-rule="evenodd" clip-rule="evenodd" d="M154.039 105.447C152.78 105.694 152.33 105.136 152.678 103.773C155.178 100.408 156.597 97.049 157.287 93.6837C157.559 88.7148 156.432 87.8462 153.887 91.0785C152.033 93.8231 150.963 96.7065 150.115 99.6286C149.533 100.731 149.235 100.243 149.058 99.0325C149.355 94.7293 150.767 90.6983 153.286 86.9333C158.16 78.6114 163.388 79.4482 160.609 92.612C157.824 105.776 153.14 105.377 154.039 105.447Z" fill="#DFE2F2"/>
<path fill-rule="evenodd" clip-rule="evenodd" d="M193.665 115.271C198.697 110.726 200.912 106.049 200.305 101.505C202.52 98.8297 203.577 95.8002 204.989 92.4092C207.787 95.4644 205.578 108.787 196.38 116.341C195.077 117.235 194.165 116.874 193.665 115.271Z" fill="#DFE2F2"/>
<path fill-rule="evenodd" clip-rule="evenodd" d="M205.075 60.694C225.577 57.3477 241.369 55.0407 240.344 56.4602C246.731 59.3312 236.318 71.4304 218.684 82.8892C218.146 73.0404 215.019 68.0204 208.101 70.0676C205.746 67.3863 204.74 64.2689 205.075 60.694Z" fill="#DFE2F2"/>
<path fill-rule="evenodd" clip-rule="evenodd" d="M225.982 178.505L231.868 176.635C229.596 172.357 228.14 168.034 227.488 163.667L219.411 166.475L217.373 171.356C220.671 173.739 223.595 176.122 225.981 178.505H225.982Z" fill="#DFE2F2"/>
<path fill-rule="evenodd" clip-rule="evenodd" d="M207.529 180.746C202.237 179.516 197.927 177.095 196.401 173.539L202.098 159.742C202.744 156.161 200.693 154.025 196.964 152.789L154.841 142.896L153.575 142.009C151.283 137.99 152.252 136.133 156.468 136.431C175.235 138.219 191.654 141.603 210.004 147.922C215.967 150.343 217.979 154.837 216.049 161.415C213.833 167.956 210.751 174.357 207.529 180.746Z" fill="#DFE2F2"/>
<path fill-rule="evenodd" clip-rule="evenodd" d="M183.506 160.902C179.524 156.484 174.568 152.371 169.163 148.403L184.227 151.667C186.55 154.329 188.398 157.042 189.203 159.862L183.506 160.902Z" fill="#DFE2F2"/>
<path fill-rule="evenodd" clip-rule="evenodd" d="M199.69 118.429C196.936 117.992 194.626 118.239 194.524 118.993C194.417 119.741 196.569 120.711 199.315 121.148C202.069 121.586 204.379 121.339 204.481 120.584C204.582 119.837 202.436 118.867 199.69 118.429Z" fill="#DFE2F2"/>
<path fill-rule="evenodd" clip-rule="evenodd" d="M147.76 92.3019C148.836 88.8922 150.431 85.5776 152.222 82.3573C162.596 68.458 166.09 81.8566 163.856 93.1954C163.122 98.3988 160.818 102.804 157.374 106.613C160.457 109.909 170.18 108.958 173.546 108.609C177.946 107.754 183.117 107.709 187.446 109.275C187.643 109.008 187.826 108.736 187.991 108.451C183.035 106.822 182.674 95.908 182.927 92.1118C183.433 84.4365 183.282 76.2793 181.706 68.7946C176.332 51.7391 158.242 49.3057 149.127 63.9139C146.671 73.3829 146.165 82.7636 147.76 92.3019Z" fill="#DFE2F2"/>
<path fill-rule="evenodd" clip-rule="evenodd" d="M194.195 166.76L191.979 171.082C190.877 170.182 190.751 169.283 191.067 168.382C191.751 167.299 192.517 166.894 194.195 166.76Z" fill="#DFE2F2"/>
<path fill-rule="evenodd" clip-rule="evenodd" d="M215.076 177.63L212.183 182.282C213.81 183.251 216.044 182.821 216.449 181.135C216.221 178.764 215.715 178.022 215.076 177.63Z" fill="#DFE2F2"/>
<path fill-rule="evenodd" clip-rule="evenodd" d="M129.595 12.916L129.596 12.9156C129.324 13.6757 129.072 14.4432 128.838 15.2174L128.832 15.2379L128.724 15.6051L128.717 15.6267L128.624 15.9518L128.612 15.9943L128.605 16.017C126.554 23.2852 126.109 31.1658 126.055 39.291C126.872 40.3683 127.777 40.7108 129.296 40.3176C136.967 37.1867 144.588 35.951 153.197 36.61C151.44 29.3273 144.737 20.3053 138.036 13.8315L138.001 13.7972L137.965 13.7629L137.894 13.6947L137.861 13.6626L137.859 13.6604L137.823 13.6265L137.788 13.5922L137.752 13.5583L137.716 13.5247L137.645 13.4569L137.61 13.4233L137.539 13.3558L137.511 13.3301L137.503 13.3223L137.467 13.2887L137.432 13.2552L137.361 13.1881L137.325 13.1545L137.183 13.0215L137.161 13.0006L137.148 12.9883L137.112 12.9551L137.077 12.9219L137.006 12.856L136.97 12.8232L136.864 12.7251L136.829 12.6923L136.812 12.677L136.793 12.6599L136.475 12.3691L136.464 12.3591L136.44 12.3371L136.122 12.0512L136.116 12.0463L135.77 11.7388L135.761 11.7328L135.752 11.7272L135.743 11.7213L135.735 11.7153L135.727 11.7097L135.71 11.6978L135.701 11.6922L135.692 11.6862L135.684 11.6806L135.675 11.6747L135.658 11.6635L135.65 11.6575L135.641 11.6519L135.633 11.646L135.625 11.6404L135.616 11.6344L135.599 11.6232L135.591 11.6176L135.582 11.612L135.574 11.6065L135.565 11.6012L135.557 11.5956L135.549 11.5901L135.54 11.5845L135.532 11.5792L135.523 11.5737L135.515 11.5684L135.507 11.5628L135.498 11.5576L135.497 11.5565L135.49 11.552L135.481 11.5468L135.473 11.5412L135.465 11.536L135.456 11.5304L135.448 11.5252L135.44 11.52L135.431 11.5148L135.423 11.5092L135.398 11.4935L135.39 11.4883L135.382 11.4831L135.373 11.4775L135.365 11.4723L135.363 11.4708L135.357 11.4667L135.348 11.4614L135.34 11.4559L135.332 11.4506L135.324 11.4454L135.316 11.4398L135.308 11.4346L135.299 11.4294L135.291 11.4242L135.283 11.419L135.274 11.4137L135.266 11.4085L135.258 11.4033L135.25 11.3981L135.233 11.3876C132.606 9.74971 130.806 10.0461 129.817 12.2968C129.74 12.5022 129.664 12.7083 129.59 12.9149L129.595 12.916Z" fill="#DFE2F2"/>
<path fill-rule="evenodd" clip-rule="evenodd" d="M112.917 197.702C108.512 182.366 108.341 156.065 116.821 152.237L116.835 152.575C115.404 158.446 115.484 164.782 116.377 170.666C117.669 179.173 120.696 187.634 124.681 195.52L119.688 208.652C116.964 207.95 114.62 203.649 112.913 197.7L112.917 197.702Z" fill="#DFE2F2"/>
<path fill-rule="evenodd" clip-rule="evenodd" d="M198.896 204.638C189.451 208.656 179.274 211.283 168.623 212.276C168.218 206.388 170.506 200.841 173.743 195.414C179.382 200.771 186.699 204.391 198.896 204.638Z" fill="#DFE2F2"/>
<path fill-rule="evenodd" clip-rule="evenodd" d="M217.613 192.215C216.979 192.295 216.3 192.369 215.575 192.436L215.562 192.437L215.316 192.459C211.439 192.804 206.306 192.968 199.916 192.948L215.785 194.558C215.75 194.908 215.697 195.246 215.631 195.575C211.304 198.472 206.741 201.041 201.981 203.258C196.963 203.207 190.824 202.003 183.972 199.641C166.274 192.409 172.224 180.95 180.421 179.366C183.263 181.945 185.782 184.664 187.827 187.599C185.782 188.176 182.738 187.688 178.68 186.129C174.623 184.563 186.592 191.934 188.656 191.414C190.72 190.889 193.549 192.397 190.998 188.803C188.447 185.21 182.858 179.169 180.345 174.353C177.706 165.612 181.086 162.456 186.915 161.569C193.036 161.607 195.884 162.361 193.947 164.18C189.605 165.726 187.529 167.184 188.428 170.334C191.605 175.519 195.751 179.898 202.555 182.047C207.746 184.493 212.917 185.463 217.898 183.986C221.709 181.768 217.038 176.564 218.43 175.62C221.224 176.231 224.704 180.004 225.439 184.118L225.44 184.118C225.465 184.255 225.486 184.393 225.505 184.531L225.506 184.543C225.757 186.449 225.399 188.407 224.096 190.14C223.71 190.705 222.741 191.184 221.189 191.578L221.052 191.612L221.011 191.622L220.902 191.648L220.829 191.665L220.828 191.665L220.642 191.707L220.591 191.719L220.45 191.75L220.431 191.754L220.267 191.788L220.253 191.791L220.1 191.822L220.052 191.832L219.756 191.888L219.746 191.889L219.397 191.952L219.213 191.983L219.025 192.013L218.839 192.043L218.835 192.043L218.64 192.074L218.5 192.094L218.442 192.103L218.259 192.129L218.241 192.131L218.036 192.16L217.856 192.184L217.829 192.187L217.761 192.196L217.617 192.215L217.613 192.215Z" fill="#DFE2F2"/>
<path fill-rule="evenodd" clip-rule="evenodd" d="M232.716 173.226C228.399 165.451 227.51 151.527 230.841 149.319C231.483 148.546 232.09 148.578 232.649 149.413C233.59 154.241 235.872 158.624 239.678 162.713C239.199 163.871 238.829 165.024 238.58 166.172L238.58 166.171C238.448 166.78 238.349 167.389 238.287 167.994L238.286 168.004C238.268 168.18 238.253 168.356 238.241 168.532L238.239 168.552L238.232 168.666L238.228 168.735L238.225 168.8L238.219 168.934C238.214 169.045 238.211 169.156 238.209 169.266L238.209 169.282L238.208 169.335L238.207 169.464L238.206 169.469C238.206 169.578 238.207 169.686 238.209 169.794L238.209 169.827L238.21 169.869L238.213 170.003L238.214 170.008L238.22 170.18L238.221 170.19L238.225 170.27L238.23 170.371L238.241 170.537L238.242 170.553L238.25 170.67L238.255 170.734L238.257 170.753L238.268 170.877L238.272 170.915L238.274 170.936L238.287 171.069L238.29 171.096L238.302 171.202L238.311 171.277L238.319 171.335C238.59 173.484 239.364 175.609 240.72 177.706C239.581 178.028 238.41 178.373 237.972 178.242C236.324 177.756 234.883 176.491 233.661 174.744L233.65 174.729C233.573 174.619 233.498 174.507 233.423 174.394L233.408 174.372L233.392 174.348C233.241 174.117 233.093 173.879 232.95 173.634L232.908 173.563C232.844 173.452 232.78 173.339 232.716 173.225L232.716 173.226Z" fill="#DFE2F2"/>
<path fill-rule="evenodd" clip-rule="evenodd" d="M264.605 162.17C258.632 158.693 257.93 152.805 262.992 152.579C273.754 148.557 284.372 144.141 294.424 138.286C301.697 136.157 308.964 151.583 299.47 157.563C289.021 162.775 277.137 163.495 264.605 162.17Z" fill="#DFE2F2"/>
<path fill-rule="evenodd" clip-rule="evenodd" d="M263.481 163.588C272.955 164.227 282.398 164.001 291.787 162.491C298.957 161.379 298.741 166.268 295.163 173.887C294.391 176.297 266.868 178.431 261.636 169.712C259.933 166.24 261.074 164.522 263.481 163.588Z" fill="#DFE2F2"/>
<path fill-rule="evenodd" clip-rule="evenodd" d="M258.183 178.513C258.228 174.587 259.323 172.676 261.944 173.708C269.651 177.986 277.809 180.042 286.336 180.251C291.891 180.915 287.844 188.796 282.171 189.903C270.566 191.615 262.994 187.172 258.183 178.513Z" fill="#DFE2F2"/>
<path fill-rule="evenodd" clip-rule="evenodd" d="M257.366 136.328L257.496 136.166L257.528 136.125L257.559 136.088L257.561 136.085L257.593 136.044L257.658 135.964L257.756 135.843L257.854 135.722L257.882 135.687L257.886 135.682L257.919 135.643L257.952 135.602L257.985 135.562L258.017 135.522L258.05 135.482L258.083 135.443L258.148 135.363L258.18 135.323L258.246 135.244L258.311 135.164L258.344 135.124L258.377 135.085L258.409 135.045L258.475 134.966L258.508 134.926L258.533 134.896L258.54 134.887L258.573 134.847L258.606 134.808L258.737 134.65L258.803 134.571L258.967 134.376L259 134.336L259.033 134.297L259.066 134.258L259.297 133.985L259.33 133.946C265.643 126.538 272.627 120.659 280.08 115.86C292.811 109.675 305.178 129.193 294.647 135.227C284.483 141.659 274.225 146.12 263.865 148.615C256.388 148.815 253.069 141.728 257.367 136.328H257.366Z" fill="#DFE2F2"/>
<path fill-rule="evenodd" clip-rule="evenodd" d="M255.436 184.306C247.879 186.113 240.071 177.909 239.758 169.557L239.755 169.461L239.754 169.428C239.751 169.312 239.749 169.196 239.749 169.081V169.076L239.749 168.98L239.749 168.964C239.75 168.842 239.752 168.721 239.756 168.598L239.762 168.442C239.767 168.339 239.773 168.237 239.78 168.134L239.796 167.912L239.819 167.674L239.847 167.424L239.876 167.202C239.89 167.104 239.905 167.006 239.921 166.909L239.948 166.748C239.97 166.627 239.993 166.506 240.019 166.385L240.039 166.289C240.067 166.159 240.097 166.03 240.13 165.9L240.147 165.832C240.183 165.691 240.223 165.549 240.264 165.409L240.278 165.36C240.322 165.216 240.368 165.073 240.417 164.929L240.428 164.895C240.535 164.587 240.654 164.281 240.787 163.978L240.79 163.972C240.856 163.819 240.927 163.669 241.001 163.518L248.588 166.058C245.909 164.768 243.658 163.297 241.818 161.653L241.818 161.652C236.228 156.656 234.426 150.062 235.909 142.075L240.589 128.362C241.739 116.211 238.861 104.873 235.897 93.5868C233.26 83.3395 247.712 81.3691 256.875 92.6482L257.083 92.7858L257.338 93.2495L257.35 93.2629C257.555 93.5369 257.762 93.8161 257.966 94.102L257.973 94.1124L257.974 94.1143L257.983 94.1262L257.991 94.1381L258 94.1504L258.017 94.1747L258.026 94.187L258.027 94.1892L258.034 94.1997L258.052 94.2239L258.06 94.2366L258.063 94.2414L258.069 94.2489L258.1 94.2928L258.103 94.2977L258.112 94.3104L258.118 94.3189L258.12 94.3227L258.129 94.335L258.136 94.3454L258.138 94.3476L258.146 94.3599L258.154 94.3715L258.155 94.3722L258.172 94.3969L258.181 94.4095L258.189 94.4215L258.19 94.4233L258.198 94.4338L258.207 94.4464L258.208 94.4494L258.215 94.4587L258.224 94.4707L258.226 94.4751L258.232 94.4833L258.241 94.4956L258.262 94.5273L258.266 94.5333L258.275 94.5456L258.28 94.5534L258.283 94.5579L258.292 94.5706L258.298 94.5799L258.3 94.5829L258.308 94.5955L258.315 94.606L258.325 94.6205L258.333 94.6324L258.334 94.6328L258.351 94.6585L258.359 94.6705L258.367 94.6831L258.369 94.6854L258.376 94.6954L258.384 94.7085L258.387 94.7118L258.393 94.7208L258.401 94.7338L258.404 94.7387L258.409 94.7465L258.418 94.7595L258.422 94.7655L258.426 94.7719L258.435 94.7849L258.439 94.7923L258.443 94.7976L258.451 94.8102L258.457 94.8192L258.46 94.8229L258.469 94.836L258.475 94.846L258.477 94.849L258.485 94.8613L258.493 94.8729L258.493 94.8744L258.502 94.887L258.51 94.9001L258.59 95.107L258.591 95.1107L258.667 95.3146L258.67 95.3217L258.742 95.5226L258.746 95.533L258.814 95.7306L258.819 95.7444L258.884 95.939L258.89 95.9561L258.952 96.1474L258.959 96.1682L259.018 96.3565L259.025 96.3811L259.081 96.5656L259.089 96.5936L259.142 96.7751L259.15 96.8064L259.209 97.02L259.256 97.1952L259.266 97.2336L259.309 97.4054L259.319 97.4476L259.327 97.4811L259.371 97.6619L259.409 97.8274L259.42 97.8766L259.455 98.0384L259.466 98.0917L259.499 98.2497L259.51 98.3068L259.54 98.4619L259.544 98.482L259.579 98.6743L259.591 98.7384L259.615 98.8868L259.627 98.9543L259.635 99.0072L259.656 99.1392L259.669 99.2286L259.689 99.3654L259.692 99.387L259.71 99.5261L259.715 99.56L259.737 99.7393L259.747 99.8217L259.762 99.954L259.765 99.9868L259.782 100.16L259.784 100.175L259.798 100.334L259.806 100.422L259.816 100.551L259.822 100.632L259.833 100.791L259.836 100.834L259.844 100.984L259.846 101.03L259.851 101.135L259.853 101.186L259.858 101.306L259.86 101.355L259.863 101.463L259.864 101.489L259.868 101.669V101.691L259.87 101.855L259.87 101.964V102.016L259.869 102.161L259.867 102.299L259.865 102.371L259.861 102.535L259.86 102.57L259.854 102.74L259.851 102.816L259.844 102.954L259.839 103.041L259.831 103.179L259.827 103.248L259.814 103.417L259.812 103.442L259.798 103.626L259.777 103.843L259.754 104.072L259.749 104.113L259.727 104.301L259.726 104.306L259.706 104.468L259.704 104.483L259.685 104.619L259.675 104.693L259.667 104.749L259.664 104.771L259.634 104.966L259.634 104.97L259.606 105.144L259.598 105.192L259.592 105.229C259.569 105.365 259.544 105.502 259.519 105.638L259.483 105.824L259.475 105.861L259.436 106.051L259.429 106.085L259.387 106.279L259.335 106.507L259.328 106.533L259.28 106.735L259.275 106.757L259.223 106.964L259.218 106.982L259.163 107.193L259.159 107.207L259.1 107.422L259.097 107.433L259.035 107.652L259.033 107.659L258.967 107.882L258.966 107.886L258.896 108.113L258.824 108.34L258.823 108.344L258.749 108.568L258.747 108.575L258.671 108.795L258.586 109.039C258.132 110.456 257.53 111.91 256.774 113.412L256.332 114.227C255.687 116.288 255.234 118.295 255.231 120.186C255.423 121.883 256.007 123.656 256.852 125.383L256.861 125.401L256.902 125.483V125.484L256.943 125.507L256.984 125.531L257.025 125.556L257.065 125.579L257.106 125.604L257.145 125.628L257.185 125.652L257.224 125.677L257.263 125.702L257.339 125.751L257.415 125.8L257.451 125.825L257.488 125.85V125.85L257.525 125.875L257.561 125.9L257.597 125.925L257.632 125.95L257.667 125.976L257.702 126.001V126.001L257.737 126.026L257.771 126.052L257.838 126.102L257.871 126.128L257.904 126.155L257.936 126.18L257.968 126.206L258 126.232L258.031 126.259L258.062 126.285H258.063L258.093 126.311L258.153 126.364L258.182 126.391L258.212 126.418L258.241 126.445L258.269 126.471L258.297 126.498L258.324 126.525H258.325L258.352 126.552L258.406 126.607L258.432 126.635L258.458 126.662L258.483 126.69L258.508 126.718L258.533 126.746H258.533L258.557 126.774V126.775L258.581 126.803L258.605 126.831L258.628 126.859L258.651 126.888L258.673 126.917C259.241 127.675 259.789 128.614 260.31 129.699C259.436 130.642 258.58 131.604 257.741 132.587L257.504 132.865L257.202 133.224L256.565 133.993L255.922 134.785L255.733 135.021C253.478 137.843 252.634 141.552 254.065 144.952C255.458 148.264 258.476 150.133 261.845 150.605C260.341 150.885 258.981 151.639 258.176 153.032C257.097 154.9 257.47 157.136 258.437 158.96C259.126 160.259 260.117 161.402 261.252 162.369C258.381 164.19 258.098 167.262 259.756 170.643L259.795 170.723L259.841 170.799C259.956 170.991 260.079 171.178 260.209 171.36C259.738 171.411 259.273 171.544 258.824 171.777C256.476 173 256.116 176.136 256.089 178.494L256.082 179.052L256.353 179.54C257.009 180.72 257.709 181.815 258.45 182.829C257.545 183.518 256.546 184.025 255.44 184.311L255.436 184.306Z" fill="#DFE2F2"/>
<path fill-rule="evenodd" clip-rule="evenodd" d="M134.156 206.583L134.152 206.585L134.142 206.591L134.137 206.594L134.099 206.614L134.094 206.617L134.089 206.62L134.079 206.624L134.074 206.627L134.06 206.635L134.036 206.647L134.032 206.649L133.984 206.672L133.979 206.674L133.975 206.676L133.97 206.678L133.965 206.68L133.96 206.682L133.955 206.684L133.951 206.687L133.946 206.689L133.937 206.693L133.931 206.694L133.927 206.696L133.922 206.699L133.918 206.7L133.913 206.702L133.908 206.704L133.904 206.706L133.885 206.714L133.882 206.709L133.878 206.705L133.875 206.7L133.782 206.562L133.779 206.558L133.767 206.54L133.764 206.535L133.761 206.53L133.758 206.526L133.755 206.522L133.752 206.517L133.749 206.513L133.746 206.508L133.743 206.504L133.737 206.495L133.734 206.491L133.731 206.486L133.728 206.482L133.725 206.478L133.722 206.473L133.719 206.469L133.716 206.464L133.713 206.46L133.71 206.456L133.707 206.451L133.704 206.447L133.698 206.438L133.695 206.434L133.692 206.429C109.918 171.418 111.623 133.684 145.505 134.792C143.897 138.176 144.904 141.029 148.524 143.348L165.285 147.893L180.837 161.392C179.894 162.578 178.812 163.567 177.552 166.184C176.191 169.023 178.584 171.97 178.723 176.901L173.691 180.774C170.313 184.988 169.288 186.765 171.038 194.007C171.256 193.587 164.868 206.547 166.57 212.45C164.091 212.633 161.587 212.726 159.062 212.726C157.775 212.726 156.494 212.694 155.219 212.647L155.223 212.643C153.649 212.582 152.084 212.488 150.53 212.358L163.738 193.423C163.838 191.788 163.147 190.411 162.177 189.133L161.576 187.498L162.158 189.108L161.361 188.132C160.247 189.469 160.55 190.806 161.057 192.143C155.771 189.957 151.296 186.167 147.619 180.779C145.79 178.061 147.176 175.342 147.923 172.623C148.423 176.679 149.936 179.842 152.448 182.117C150.012 172.623 153.379 167.052 159.398 163.268C151.088 165.435 139.834 172.984 137.03 200.428C136.666 203.979 135.331 205.921 134.155 206.583L134.156 206.583Z" fill="#DFE2F2"/>
<path fill-rule="evenodd" clip-rule="evenodd" d="M78.6547 96.5576L78.6305 96.5684C73.7656 99.2351 69.6031 101.832 65.7974 105.131C64.0235 106.695 62.2135 108.486 60.4723 110.515C60.1157 110.934 59.7606 111.365 59.4069 111.807L59.4102 111.794C58.6873 112.693 57.9818 113.635 57.3002 114.621L57.3009 114.645L57.2261 114.754L57.2384 114.709L57.2134 114.745L57.2146 114.772C52.92 121.067 51.7827 125.973 51.7808 125.981C33.4511 125.697 16.4068 132.953 0.089988 144.45C-2.32906 95.4587 44.4328 56.4585 90.9394 53.2971C86.3987 53.3414 82.0044 53.6337 77.7649 54.1869L77.7645 54.1876C77.2281 54.2573 76.6939 54.3319 76.1619 54.4102H76.16C75.6281 54.4888 75.0987 54.5712 74.5719 54.6584L74.5027 54.67C64.3407 56.3545 55.1149 59.6207 46.9483 64.6739L6.135 58.786C24.429 33.2897 65.4605 15.6843 111.381 20.4185L111.389 20.4144C113.431 20.6246 115.482 20.8766 117.543 21.1763L113.46 43.2581C114.688 39.9875 115.789 36.6222 116.802 33.2822L121.074 17.5512L121.144 17.2846L121.532 15.7473L121.539 15.7175C122.766 10.8503 123.816 6.71637 124.777 3.93069L124.822 3.7786C124.594 -0.144747 126.759 -1.61493 134.183 2.30842L134.272 2.36545C137.464 3.95269 140.868 6.4517 144.224 9.65823L144.29 9.72085L144.391 9.8174L144.557 9.97806L144.687 10.1048L144.723 10.1395L144.885 10.2994L144.889 10.3024L145.054 10.4668L145.084 10.4958L145.282 10.6934L145.386 10.7978L145.48 10.8928L145.551 10.9651L145.678 11.0937L145.875 11.2962L145.882 11.3029C146.011 11.4359 146.14 11.5705 146.27 11.7058L146.376 11.8177L146.467 11.9127L146.541 11.9917L146.663 12.1218L146.706 12.1669L146.859 12.3324C149.488 15.1606 152.042 18.4003 154.394 21.9502C156.881 25.563 158.989 29.4036 160.756 33.46L160.711 33.4406L161.078 34.2902C150.546 38.0424 144.805 45.179 142.336 54.6416C150.767 41.0402 160.699 31.3494 176.801 37.7759C191.334 44.2661 194.322 58.8878 193.125 76.4566C195.379 71.1708 195.961 65.4541 195.391 59.4585C200.962 62.1331 204.639 66.5947 204.158 74.9864L201.29 82.744C203.81 78.4848 206.329 75.0054 208.848 73.2434C214.089 71.2025 215.501 77.3378 214.292 87.1613C212.981 92.1619 210.658 95.7304 207.335 97.8723L207.032 89.0374C206.955 88.3146 207.968 86.8001 210.506 88.3657C210.563 87.2504 210.412 86.1347 208.848 85.0194C206.481 85.8242 204.917 87.3391 204.158 89.5697C202.069 95.6163 199.601 100.661 196.303 103.494L197.511 96.3958L194.638 103.494C191.916 106.568 189.6 106.435 187.682 103.089C185.89 94.5327 186.245 82.1674 186.175 70.5688C181.871 45.9458 154.046 41.6042 145.21 66.1511C143.798 73.9531 142.881 81.7614 144.298 89.5697C145.457 92.1619 144.602 93.322 141.728 93.0558C120.866 80.8299 97.94 92.295 110.586 123.839C103.029 121.621 97.9907 114.104 93.6611 105.098C95.6487 113.216 100.035 120.892 109.681 127.585C118.98 131.787 124.018 135.558 122.834 138.695C105.972 149.193 94.8766 162.043 85.697 177.118L85.6974 177.119C80.7394 185.261 76.3395 194.053 71.8934 203.475C54.128 188.438 42.0447 149.509 57.5202 119.614L57.5623 119.44L57.5161 119.523L57.5202 119.614L57.5329 119.59C57.6457 119.372 57.7599 119.155 57.8753 118.939C58.0153 118.676 58.1579 118.415 58.3023 118.154L58.5466 117.717L58.5521 117.707C64.5391 107.632 69.9654 103.417 78.6915 96.5359L78.6554 96.5557L78.6547 96.5587V96.5576Z" fill="#DFE2F2"/>
<path fill-rule="evenodd" clip-rule="evenodd" d="M153.229 95.6098C152.773 95.4831 152.007 96.4527 151.513 97.7901C151.02 99.1213 150.994 100.306 151.45 100.439C151.906 100.573 152.672 99.5965 153.166 98.2658C153.659 96.9346 153.685 95.7433 153.229 95.6098Z" fill="#DFE2F2"/>
</svg>
