<svg width="46" height="32" viewBox="0 0 46 32" fill="none" xmlns="http://www.w3.org/2000/svg">
<path fill-rule="evenodd" clip-rule="evenodd" d="M26.1358 20.1151C26.9778 19.8367 27.6529 19.4382 28.1621 18.9176C28.2527 18.7936 28.2527 18.6697 28.1621 18.5458C27.8541 18.2941 27.6081 18.029 27.4221 17.7507C27.3154 17.294 27.5585 17.0928 28.1507 17.1462C28.2947 17.0995 28.3175 17.0394 28.2184 16.965C28.062 16.5484 27.3469 16.4025 26.2494 16.4416C23.9533 16.905 22.8805 16.5188 22.0719 15.2642L21.7687 14.7589C18.9024 12.4202 15.2503 13.8388 16.9114 17.989C17.412 18.87 18.2511 19.5793 19.587 20.036C19.4983 20.0998 21.5541 19.1798 26.1359 20.1151L26.1358 20.1151ZM22.561 18.6163C21.5626 18.1768 20.652 17.7268 20.0571 17.2368C19.7005 16.6561 19.4039 16.0498 19.1693 15.4157C19.1464 15.1012 19.7071 15.3233 20.5348 15.7876C18.9739 14.408 18.0737 14.3527 18.2129 16.3816C18.4399 15.657 18.6487 15.2508 18.8155 15.5464C19.0663 16.1757 19.3705 16.7658 19.772 17.2874C20.5367 17.928 21.5064 18.3161 22.561 18.6164L22.561 18.6163Z" fill="#F22738"/>
<path fill-rule="evenodd" clip-rule="evenodd" d="M36.2194 24.8047C36.2355 24.7584 36.2534 24.7123 36.2734 24.6667L36.2194 24.8047Z" fill="#F22738"/>
<path fill-rule="evenodd" clip-rule="evenodd" d="M39.1061 15.8289C39.1026 15.8493 39.0989 15.8698 39.0951 15.8904L39.1061 15.8289Z" fill="#F22738"/>
<path fill-rule="evenodd" clip-rule="evenodd" d="M28.9399 16.5075C28.9084 16.4951 28.8427 16.5647 28.794 16.6629C28.7463 16.7611 28.7329 16.8508 28.7654 16.8631C28.7978 16.8755 28.8636 16.8059 28.9113 16.7077C28.9599 16.6095 28.9723 16.5199 28.9399 16.5075V16.5075Z" fill="#F22738"/>
<path fill-rule="evenodd" clip-rule="evenodd" d="M31.0388 17.998C31.4689 18.7951 28.3308 18.286 29.1852 17.6758L27.9226 17.344C27.669 17.3774 27.5813 17.5051 27.6614 17.7263C28.2202 18.6311 29.7363 19.4091 31.4822 19.0134C32.2526 18.4614 31.9972 18.1477 31.0388 17.998Z" fill="#F22738"/>
<path fill-rule="evenodd" clip-rule="evenodd" d="M29.0191 16.1089L28.877 16.1337C28.7873 16.15 28.6796 16.5218 28.4565 16.7372L28.4507 16.8373L28.5642 16.9079C28.6548 16.6161 28.8178 16.3644 29.0305 16.1394L29.019 16.1089L29.0191 16.1089Z" fill="#F22738"/>
<path fill-rule="evenodd" clip-rule="evenodd" d="M29.3366 15.9432L29.7466 15.6114C29.9945 15.5008 29.9869 15.7163 29.8029 16.1548C29.6398 16.6029 29.3194 16.9681 28.9275 17.2951L28.7912 17.2903L28.7855 17.134C29.0734 16.9395 29.3147 16.6621 29.451 16.1996C29.4805 16.0709 29.4434 15.9852 29.3366 15.9432V15.9432Z" fill="#F22738"/>
<path fill-rule="evenodd" clip-rule="evenodd" d="M23.2053 15.8621C23.0156 15.8993 22.9479 15.8154 23.0004 15.6104C23.377 15.1041 23.5907 14.5988 23.6946 14.0926C23.7356 13.3451 23.5658 13.2145 23.1825 13.7007C22.9031 14.1136 22.7419 14.5473 22.6142 14.9869C22.5265 15.1527 22.4817 15.0793 22.455 14.8972C22.4998 14.2499 22.7124 13.6435 23.0919 13.0771C23.8261 11.8253 24.6137 11.9512 24.1951 13.9314C23.7755 15.9116 23.0699 15.8516 23.2053 15.8621V15.8621Z" fill="#F22738"/>
<path fill-rule="evenodd" clip-rule="evenodd" d="M29.1749 17.3399C29.9329 16.6563 30.2667 15.9526 30.1751 15.2691C30.5089 14.8667 30.6681 14.411 30.8808 13.9009C31.3022 14.3605 30.9695 16.3645 29.5839 17.501C29.3875 17.6354 29.2502 17.581 29.1749 17.3399Z" fill="#F22738"/>
<path fill-rule="evenodd" clip-rule="evenodd" d="M30.8938 9.12998C33.9823 8.6266 36.3613 8.27955 36.2069 8.49309C37.169 8.92497 35.6005 10.745 32.9439 12.4688C32.8628 10.9872 32.3918 10.2321 31.3496 10.54C30.9949 10.1367 30.8433 9.66768 30.8938 9.12992V9.12998Z" fill="#F22738"/>
<path fill-rule="evenodd" clip-rule="evenodd" d="M34.0432 26.852L34.9301 26.5708C34.5877 25.9272 34.3684 25.277 34.2701 24.6201L33.0534 25.0425L32.7464 25.7767C33.2432 26.1351 33.6837 26.4936 34.0431 26.852H34.0432Z" fill="#F22738"/>
<path fill-rule="evenodd" clip-rule="evenodd" d="M31.2634 27.1894C30.4663 27.0044 29.8169 26.6402 29.5871 26.1053L30.4453 24.0298C30.5426 23.4911 30.2336 23.1698 29.6719 22.9839L23.3262 21.4957L23.1354 21.3622C22.7902 20.7577 22.9361 20.4784 23.5712 20.5232C26.3985 20.7921 28.872 21.3011 31.6363 22.2517C32.5345 22.6159 32.8377 23.2919 32.5469 24.2815C32.2131 25.2654 31.7488 26.2284 31.2634 27.1894V27.1894Z" fill="#F22738"/>
<path fill-rule="evenodd" clip-rule="evenodd" d="M27.6444 24.2041C27.0446 23.5396 26.298 22.9208 25.4837 22.324L27.7531 22.815C28.1031 23.2154 28.3815 23.6234 28.5026 24.0477L27.6445 24.204L27.6444 24.2041Z" fill="#F22738"/>
<path fill-rule="evenodd" clip-rule="evenodd" d="M30.0824 17.8152C29.6676 17.7494 29.3196 17.7865 29.3043 17.9C29.2881 18.0125 29.6123 18.1584 30.0261 18.2242C30.4409 18.29 30.7889 18.2528 30.8042 18.1393C30.8195 18.0269 30.4962 17.8809 30.0824 17.8152Z" fill="#F22738"/>
<path fill-rule="evenodd" clip-rule="evenodd" d="M22.2594 13.8848C22.4215 13.3719 22.6618 12.8733 22.9317 12.3889C24.4945 10.298 25.0209 12.3136 24.6843 14.0192C24.5737 14.802 24.2266 15.4646 23.7079 16.0376C24.1722 16.5334 25.6369 16.3903 26.1441 16.3379C26.8068 16.2092 27.5859 16.2025 28.2381 16.438C28.2677 16.3979 28.2953 16.357 28.3201 16.3141C27.5735 16.0691 27.5191 14.4273 27.5573 13.8562C27.6335 12.7016 27.6107 11.4746 27.3733 10.3486C26.5637 7.78302 23.8385 7.41697 22.4654 9.61447C22.0955 11.0389 22.0192 12.45 22.2594 13.8848V13.8848Z" fill="#F22738"/>
<path fill-rule="evenodd" clip-rule="evenodd" d="M29.2547 25.0855L28.9209 25.7357C28.7549 25.6003 28.7359 25.465 28.7835 25.3295C28.8865 25.1665 29.0019 25.1055 29.2546 25.0854L29.2547 25.0855Z" fill="#F22738"/>
<path fill-rule="evenodd" clip-rule="evenodd" d="M32.4004 26.7205L31.9646 27.4203C32.2096 27.5661 32.5462 27.5014 32.6072 27.2477C32.5729 26.8912 32.4966 26.7796 32.4004 26.7205V26.7205Z" fill="#F22738"/>
<path fill-rule="evenodd" clip-rule="evenodd" d="M19.5229 1.94304L19.5231 1.94299C19.4821 2.05732 19.4441 2.17278 19.409 2.28924L19.4081 2.29233L19.3917 2.34756L19.3907 2.35081L19.3767 2.39971L19.3749 2.4061L19.3739 2.40952C19.0649 3.50286 18.9979 4.68833 18.9897 5.91058C19.1127 6.07264 19.2491 6.12417 19.4779 6.06501C20.6336 5.59404 21.7817 5.40815 23.0785 5.50729C22.8139 4.41177 21.804 3.0546 20.7946 2.08076L20.7892 2.0756L20.7839 2.07044L20.7785 2.06528L20.7732 2.06018L20.7683 2.05536L20.7679 2.05502L20.7625 2.04992L20.7572 2.04476L20.7518 2.03966L20.7464 2.03461L20.7357 2.02441L20.7304 2.01936L20.725 2.01431L20.7196 2.00921L20.7156 2.00534L20.7143 2.00416L20.7089 1.99912L20.7036 1.99407L20.6982 1.98902L20.6928 1.98398L20.6875 1.97893L20.6821 1.97388L20.6715 1.9639L20.6661 1.95891L20.6628 1.95577L20.6608 1.95392L20.6554 1.94893L20.65 1.94394L20.6394 1.93401L20.6341 1.92908L20.6181 1.91433L20.6128 1.9094L20.6102 1.9071L20.6074 1.90452L20.5594 1.86078L20.5577 1.85927L20.5541 1.85596L20.5063 1.81295L20.5054 1.81222L20.4531 1.76596L20.4519 1.76506L20.4506 1.76422L20.4492 1.76332L20.4479 1.76243L20.4467 1.76158L20.4454 1.76069L20.4441 1.75979L20.4428 1.75895L20.4415 1.75805L20.4402 1.75721L20.439 1.75631L20.4377 1.75547L20.4364 1.75463L20.4351 1.75373L20.4338 1.75289L20.4326 1.752L20.4325 1.75194L20.4313 1.75116L20.43 1.75026L20.4287 1.74942L20.4275 1.74858L20.4262 1.74773L20.4249 1.74689L20.4237 1.74605L20.4224 1.74527L20.4211 1.74443L20.4199 1.74359L20.4186 1.74274L20.4173 1.74196L20.4161 1.74112L20.4148 1.74033L20.4136 1.73949L20.4123 1.73871L20.4121 1.73854L20.411 1.73787L20.4097 1.73708L20.4085 1.73624L20.4072 1.73545L20.406 1.73461L20.4047 1.73383L20.4035 1.73304L20.4022 1.73226L20.4009 1.73142L20.3997 1.73063L20.3985 1.72985L20.3972 1.72906L20.3959 1.72828L20.3947 1.72749L20.3935 1.72665L20.3922 1.72587L20.392 1.72564L20.391 1.72502L20.3897 1.72424L20.3885 1.7234L20.3872 1.72261L20.386 1.72183L20.3848 1.72099L20.3835 1.7202L20.3823 1.71942L20.381 1.71863L20.3798 1.71785L20.3786 1.71706L20.3773 1.71628L20.3761 1.71549L20.3749 1.71471L20.3736 1.71392L20.3724 1.71314C19.9766 1.46675 19.7054 1.51133 19.5564 1.8499C19.5448 1.8808 19.5333 1.91181 19.5222 1.94287L19.5229 1.94304Z" fill="#F22738"/>
<path fill-rule="evenodd" clip-rule="evenodd" d="M17.0105 29.7401C16.3469 27.4331 16.3211 23.4767 17.5986 22.9009L17.6007 22.9517C17.3852 23.8349 17.3972 24.7879 17.5318 25.673C17.7264 26.9527 18.1825 28.2256 18.7828 29.4118L18.4106 30.3892L18.2496 30.8116L18.0305 31.3872C17.6202 31.2816 17.2671 30.6346 17.01 29.7398L17.0105 29.74V29.7401Z" fill="#F22738"/>
<path fill-rule="evenodd" clip-rule="evenodd" d="M29.9629 30.7833C28.54 31.3878 27.0068 31.7828 25.4024 31.9322C25.3413 31.0466 25.686 30.2121 26.1737 29.3958C27.0232 30.2015 28.1255 30.7461 29.9629 30.7833V30.7833Z" fill="#F22738"/>
<path fill-rule="evenodd" clip-rule="evenodd" d="M32.7826 28.9145C32.687 28.9265 32.5848 28.9376 32.4756 28.9477L32.4735 28.9478L32.4365 28.9512C31.8525 29.0031 31.0792 29.0277 30.1166 29.0247L32.5072 29.2669C32.502 29.3196 32.494 29.3704 32.484 29.4199C31.8322 29.8556 31.1447 30.2422 30.4276 30.5756C29.6717 30.568 28.7469 30.3868 27.7147 30.0315C25.0486 28.9437 25.9449 27.2199 27.1797 26.9815C27.6079 27.3696 27.9874 27.7786 28.2954 28.2201C27.9874 28.3068 27.5287 28.2334 26.9175 27.9989C26.3063 27.7634 28.1094 28.8722 28.4203 28.794C28.7312 28.7149 29.1574 28.9418 28.7731 28.4012C28.3889 27.8607 27.5469 26.952 27.1683 26.2275C26.7707 24.9127 27.2799 24.4379 28.1581 24.3044C29.0801 24.3102 29.5092 24.4236 29.2174 24.6972C28.5633 24.9298 28.2506 25.1491 28.3859 25.6229C28.8646 26.4029 29.4891 27.0616 30.5142 27.3848C31.2961 27.7529 32.0752 27.8988 32.8256 27.6766C33.3996 27.3429 32.6959 26.5601 32.9056 26.4181C33.3265 26.51 33.8508 27.0776 33.9615 27.6965L33.9617 27.6964C33.9654 27.7171 33.9686 27.7378 33.9714 27.7586L33.9716 27.7603C34.0094 28.047 33.9555 28.3416 33.7591 28.6024C33.7011 28.6873 33.5551 28.7594 33.3212 28.8186H33.3211L33.3006 28.8237L33.2945 28.8252L33.278 28.8291L33.267 28.8317L33.2669 28.8318L33.2389 28.8381L33.2312 28.8398L33.21 28.8444L33.2071 28.8451L33.1824 28.8502L33.1803 28.8506L33.1572 28.8553L33.1499 28.8568L33.1315 28.8603L33.1187 28.8627L33.1053 28.8652L33.1039 28.8655L33.0513 28.8748L33.0236 28.8795L33.0208 28.8799L32.9953 28.8841L32.9673 28.8885L32.9666 28.8886L32.9518 28.8909L32.9373 28.8932L32.9162 28.8963L32.9074 28.8976L32.8798 28.9015L32.8771 28.9019L32.8464 28.9061L32.8191 28.9098L32.8151 28.9103L32.8049 28.9116L32.7832 28.9144L32.7825 28.9145L32.7826 28.9145Z" fill="#F22738"/>
<path fill-rule="evenodd" clip-rule="evenodd" d="M35.0577 26.058C34.4075 24.8884 34.2736 22.7939 34.7753 22.4617C34.8721 22.3455 34.9635 22.3502 35.0477 22.4758C35.1895 23.2021 35.5332 23.8615 36.1066 24.4765C36.0344 24.6508 35.9787 24.8242 35.9412 24.9968L35.9412 24.9967C35.9213 25.0884 35.9064 25.1799 35.897 25.271L35.8969 25.2725C35.8941 25.2989 35.8919 25.3254 35.8901 25.3518L35.8899 25.355L35.8888 25.372L35.8882 25.3824L35.8877 25.3923L35.8869 25.4099L35.8868 25.4123C35.8861 25.429 35.8856 25.4457 35.8853 25.4622L35.8852 25.4646L35.8851 25.4727L35.8849 25.492L35.8849 25.4928C35.8848 25.5092 35.885 25.5254 35.8852 25.5417L35.8853 25.5466L35.8854 25.5531L35.8859 25.5731L35.886 25.5739L35.8869 25.5998L35.8871 25.6012L35.8876 25.6134L35.8885 25.6286L35.89 25.6534L35.8902 25.6559L35.8915 25.6735L35.8923 25.6831L35.8925 25.686L35.8942 25.7046L35.8947 25.7104L35.8951 25.7136L35.8971 25.7336L35.8975 25.7376L35.8993 25.7535L35.9007 25.7648L35.9018 25.7736C35.9426 26.0969 36.0592 26.4165 36.2635 26.7319C36.092 26.7803 35.9155 26.8323 35.8496 26.8126C35.6013 26.7395 35.3842 26.5491 35.2002 26.2864L35.1985 26.2841C35.1869 26.2676 35.1755 26.2507 35.1643 26.2336L35.1621 26.2305L35.1597 26.2268C35.1369 26.1921 35.1146 26.1562 35.093 26.1193L35.0868 26.1087C35.077 26.0919 35.0674 26.075 35.0578 26.0579L35.0577 26.058Z" fill="#F22738"/>
<path fill-rule="evenodd" clip-rule="evenodd" d="M39.8618 24.395C38.9618 23.8719 38.8561 22.9861 39.6188 22.9522C41.24 22.3472 42.8395 21.6828 44.3539 20.8021C45.4494 20.4819 46.5443 22.8024 45.114 23.7018C43.5398 24.486 41.7495 24.5943 39.8618 24.395V24.395Z" fill="#F22738"/>
<path fill-rule="evenodd" clip-rule="evenodd" d="M39.6923 24.6083C41.1195 24.7045 42.5421 24.6705 43.9565 24.4433C45.0366 24.2761 45.0041 25.0115 44.4652 26.1577C44.3489 26.5201 40.2026 26.8411 39.4144 25.5295C39.1579 25.0073 39.3298 24.7489 39.6924 24.6083H39.6923Z" fill="#F22738"/>
<path fill-rule="evenodd" clip-rule="evenodd" d="M38.8942 26.8533C38.9011 26.2627 39.0659 25.9753 39.4608 26.1304C40.6219 26.7741 41.8509 27.0834 43.1354 27.1148C43.9723 27.2146 43.3626 28.4002 42.508 28.5667C40.7597 28.8243 39.619 28.1559 38.8942 26.8533Z" fill="#F22738"/>
<path fill-rule="evenodd" clip-rule="evenodd" d="M38.7712 20.5076L38.7907 20.4833L38.7956 20.4771L38.8002 20.4715L38.8005 20.4711L38.8053 20.465L38.8103 20.4589L38.8152 20.4529L38.8299 20.4347L38.8348 20.4286L38.8397 20.4226L38.8447 20.4165L38.8489 20.4113L38.8495 20.4105L38.8545 20.4045L38.8594 20.3985L38.8643 20.3925L38.8692 20.3864L38.8742 20.3804L38.8791 20.3745L38.884 20.3685L38.889 20.3625L38.8938 20.3565L38.9037 20.3445L38.9087 20.3385L38.9136 20.3325L38.9185 20.3266L38.9235 20.3206L38.9283 20.3146L38.9333 20.3087L38.9382 20.3028L38.9431 20.2968L38.9469 20.2923L38.9481 20.2908L38.953 20.2849L38.9579 20.279L38.9629 20.273L38.9678 20.2671L38.9728 20.2611L38.9777 20.2552L38.9826 20.2493L38.9876 20.2434L39.0124 20.2139L39.0173 20.208L39.0223 20.2022L39.0273 20.1963L39.0323 20.1904L39.0571 20.1611L39.0621 20.1552L39.0671 20.1494C40.0181 19.035 41.0702 18.1506 42.193 17.4287C44.1109 16.4983 45.9738 19.4343 44.3875 20.3419C42.8563 21.3096 41.3109 21.9807 39.7503 22.3559C38.6239 22.386 38.1238 21.3199 38.7713 20.5076H38.7712Z" fill="#F22738"/>
<path fill-rule="evenodd" clip-rule="evenodd" d="M38.4804 27.7247C37.342 27.9965 36.1658 26.7625 36.1186 25.5061L36.1181 25.4916L36.118 25.4867C36.1175 25.4693 36.1173 25.4518 36.1172 25.4344V25.4338L36.1172 25.4192L36.1173 25.4169C36.1174 25.3986 36.1177 25.3803 36.1183 25.3619L36.1193 25.3383C36.1199 25.3229 36.1208 25.3075 36.1218 25.2921L36.1244 25.2587L36.1278 25.2228L36.132 25.1852L36.1364 25.1519C36.1384 25.1371 36.1407 25.1223 36.1431 25.1077L36.1472 25.0835C36.1505 25.0653 36.154 25.0471 36.1578 25.029L36.1609 25.0145C36.1651 24.995 36.1697 24.9755 36.1747 24.9559L36.1772 24.9458C36.1827 24.9245 36.1886 24.9032 36.1949 24.882L36.197 24.8748C36.2035 24.853 36.2105 24.8315 36.2178 24.8099L36.2196 24.8048C36.2356 24.7584 36.2536 24.7124 36.2736 24.6668L36.274 24.6659C36.284 24.643 36.2947 24.6203 36.3058 24.5976L36.6949 24.7277L37.4488 24.9798C37.0452 24.7857 36.7062 24.5644 36.4289 24.317L36.429 24.3169C35.5868 23.5655 35.3153 22.5735 35.5387 21.372L36.2437 19.3093C36.4171 17.4814 35.9834 15.7758 35.537 14.078C35.1397 12.5365 37.3169 12.2401 38.6972 13.9368L38.7285 13.9575L38.7669 14.0273L38.7687 14.0293C38.7996 14.0705 38.8308 14.1125 38.8615 14.1555L38.8626 14.1571L38.8628 14.1574L38.8641 14.1592L38.8653 14.161L38.8654 14.161L38.8667 14.1628L38.8692 14.1665L38.8705 14.1683L38.8707 14.1686L38.8718 14.1702L38.8744 14.1739L38.8757 14.1758L38.8762 14.1765L38.877 14.1776L38.8817 14.1842L38.8822 14.185L38.8835 14.1869L38.8844 14.1882L38.8848 14.1887L38.8861 14.1906L38.8872 14.1921L38.8874 14.1925L38.8887 14.1943L38.8899 14.1961L38.89 14.1962L38.8913 14.198L38.8926 14.1999V14.1999L38.8939 14.2018L38.8952 14.2036L38.8954 14.2039L38.8965 14.2054L38.8978 14.2073L38.8981 14.2078L38.8991 14.2092L38.9004 14.211L38.9007 14.2117L38.9016 14.2129L38.9029 14.2147L38.9061 14.2195L38.9067 14.2204L38.908 14.2223L38.9088 14.2234L38.9093 14.2241L38.9106 14.226L38.9115 14.2274L38.9119 14.2279L38.9131 14.2298L38.9142 14.2313L38.9157 14.2335L38.9168 14.2353L38.917 14.2354L38.9196 14.2392L38.9207 14.241L38.922 14.2429L38.9222 14.2433L38.9233 14.2448L38.9246 14.2468L38.9249 14.2473L38.9259 14.2486L38.9271 14.2506L38.9276 14.2513L38.9283 14.2525L38.9296 14.2544L38.9302 14.2553L38.9309 14.2563L38.9322 14.2583L38.9329 14.2594L38.9334 14.2602L38.9347 14.2621L38.9356 14.2634L38.936 14.264L38.9373 14.2659L38.9382 14.2674L38.9385 14.2679L38.9398 14.2697L38.9409 14.2715L38.941 14.2717L38.9423 14.2736L38.9435 14.2756L38.9555 14.3067L38.9557 14.3073L38.9671 14.3379L38.9675 14.339L38.9785 14.3692L38.979 14.3708L38.9894 14.4005L38.9901 14.4026L38.9999 14.4319L39.0008 14.4344L39.0101 14.4632L39.0111 14.4663L39.02 14.4947L39.0211 14.4984L39.0295 14.5261L39.0307 14.5303L39.0387 14.5576L39.0399 14.5623L39.0474 14.5892L39.0489 14.5945L39.0558 14.6208L39.0573 14.6266L39.0638 14.6525L39.0654 14.6588L39.0666 14.6638L39.0731 14.691L39.0789 14.7159L39.0805 14.7233L39.0858 14.7477L39.0875 14.7557L39.0924 14.7795L39.0941 14.788L39.0987 14.8114L39.0993 14.8144L39.1033 14.8363L39.1045 14.8433L39.1063 14.853L39.11 14.8753L39.1117 14.8854L39.113 14.8934L39.1162 14.9133L39.1181 14.9267L39.1211 14.9473L39.1215 14.9505L39.1243 14.9715L39.125 14.9766L39.1272 14.9943L39.1284 15.0035L39.1298 15.0159L39.1321 15.0358L39.1326 15.0408L39.1352 15.0668L39.1354 15.0691L39.1376 15.093L39.1388 15.1063L39.1403 15.1256L39.1412 15.1378L39.1427 15.1617L39.1432 15.1683L39.1444 15.1908L39.1448 15.1977L39.1455 15.2134L39.1458 15.2211L39.1466 15.2392L39.1468 15.2465L39.1473 15.2628L39.1475 15.2667L39.1481 15.2938V15.2972L39.1483 15.3218L39.1484 15.3382V15.346L39.1483 15.3607L39.1482 15.3678L39.1479 15.3885L39.1477 15.3994L39.1471 15.4241L39.1469 15.4294L39.146 15.455L39.1455 15.4664L39.1445 15.4871L39.1438 15.5002L39.1426 15.5209L39.1419 15.5313L39.14 15.5568L39.1397 15.5605L39.1375 15.5882L39.1366 15.5978L39.1344 15.6208L39.1334 15.6311L39.1309 15.6552L39.1302 15.6614L39.1268 15.6897L39.1267 15.6905L39.1237 15.7149L39.1233 15.7171L39.1206 15.7375L39.1191 15.7487L39.1178 15.7571L39.1173 15.7604L39.1129 15.7898L39.1128 15.7904L39.1086 15.8166L39.1074 15.8238L39.1065 15.8294C39.103 15.8499 39.0993 15.8703 39.0955 15.8909L39.09 15.9189L39.0889 15.9244L39.083 15.953L39.0819 15.9581L39.0756 15.9873L39.0745 15.9917L39.0678 16.0216L39.0668 16.0255L39.0595 16.0559L39.0587 16.0592L39.0509 16.0903L39.0502 16.0931L39.0419 16.1247L39.0413 16.1269L39.0324 16.1592L39.0319 16.1609L39.0226 16.1938L39.0223 16.1949L39.0123 16.2284L39.0121 16.229L39.0016 16.2631V16.2632L38.9908 16.2973L38.9906 16.2979L38.9795 16.3315L38.9792 16.3327L38.9678 16.3658L38.9549 16.4024C38.8866 16.6156 38.7959 16.8343 38.682 17.0603L38.6155 17.1829C38.5182 17.4929 38.45 17.7949 38.4495 18.0793C38.4784 18.3346 38.5664 18.6013 38.6938 18.8611L38.695 18.8637L38.7012 18.8761V18.8763L38.7074 18.8798V18.8798L38.7137 18.8834V18.8834L38.7198 18.887V18.8871L38.7259 18.8906V18.8907L38.7319 18.8943V18.8943L38.7379 18.898V18.898L38.7439 18.9016V18.9017L38.7497 18.9053V18.9054L38.7556 18.909V18.9091L38.7614 18.9127V18.9128L38.7672 18.9164L38.7728 18.9201V18.9202L38.7785 18.9238V18.9239L38.784 18.9276V18.9276L38.7896 18.9313V18.9314L38.7951 18.9351V18.9351L38.8006 18.9388V18.9389L38.806 18.9426V18.9427L38.8113 18.9464L38.8166 18.9502H38.8166L38.8218 18.954V18.9541L38.8271 18.9578L38.8322 18.9617L38.8372 18.9655V18.9655L38.8423 18.9693V18.9693L38.8472 18.9732V18.9733L38.8522 18.9771L38.8571 18.981V18.9811L38.8619 18.9849V18.985L38.8667 18.9889L38.8667 18.9889L38.8714 18.9928L38.876 18.9968H38.8761L38.8807 19.0007L38.8852 19.0047H38.8853L38.8897 19.0087H38.8898L38.8941 19.0127H38.8942L38.8986 19.0167H38.8986L38.9029 19.0208H38.903L38.9072 19.0247H38.9073L38.9114 19.0288L38.9156 19.0329H38.9157L38.9197 19.037V19.037L38.9237 19.0411H38.9238L38.9278 19.0453H38.9278L38.9317 19.0494H38.9318L38.9356 19.0535H38.9357L38.9394 19.0577H38.9395L38.9433 19.0619L38.9433 19.0619L38.9469 19.0661H38.947L38.9506 19.0703V19.0704L38.9543 19.0746L38.9543 19.0747L38.9578 19.0789H38.9578L38.9613 19.0832H38.9613L38.9647 19.0874H38.9647L38.9681 19.0918H38.9682C39.0537 19.2058 39.1361 19.3472 39.2146 19.5103C39.0831 19.6522 38.954 19.7969 38.8276 19.9447L38.792 19.9866L38.7464 20.0406L38.6505 20.1562L38.5537 20.2754L38.5251 20.3109C38.1854 20.7355 38.0583 21.2933 38.2739 21.8048C38.4838 22.303 38.9383 22.5842 39.446 22.6552C39.2194 22.6972 39.0145 22.8107 38.8931 23.0203C38.7306 23.3013 38.7868 23.6376 38.9325 23.912C39.0364 24.1074 39.1855 24.2794 39.3565 24.4248C38.924 24.6987 38.8815 25.1608 39.1312 25.6695L39.1371 25.6815L39.144 25.6929C39.1614 25.7218 39.1799 25.75 39.1994 25.7773C39.1285 25.785 39.0584 25.805 38.9908 25.8401C38.6372 26.0239 38.5829 26.4958 38.5788 26.8504L38.5778 26.9344L38.6186 27.0078C38.7174 27.1853 38.8228 27.3501 38.9344 27.5026C38.7982 27.6062 38.6476 27.6824 38.481 27.7255L38.4804 27.7247Z" fill="#F22738"/>
<path fill-rule="evenodd" clip-rule="evenodd" d="M20.2102 31.0758L20.2095 31.0762L20.208 31.0771L20.2072 31.0775L20.2015 31.0806L20.2007 31.081L20.1999 31.0814L20.1985 31.0821L20.1978 31.0826L20.1957 31.0837V31.0837L20.1921 31.0855L20.1914 31.0858L20.1842 31.0892L20.1835 31.0896L20.1828 31.0899L20.1821 31.0902L20.1813 31.0905L20.1806 31.0908L20.1799 31.0911L20.1792 31.0915L20.1785 31.0918L20.1771 31.0924L20.1763 31.0927L20.1756 31.0929L20.1749 31.0933L20.1742 31.0936L20.1735 31.0938L20.1728 31.0941L20.1721 31.0944L20.1693 31.0956L20.1692 31.0955L20.1688 31.0948L20.1683 31.0942L20.1678 31.0936L20.1538 31.0727L20.1533 31.0721L20.1529 31.0714L20.152 31.0701L20.1515 31.0694L20.1511 31.0687L20.1507 31.068L20.1501 31.0674L20.1497 31.0666L20.1492 31.066L20.1488 31.0653L20.1484 31.0647L20.1478 31.064L20.1474 31.0633L20.1469 31.0627L20.1465 31.062L20.1461 31.0614L20.1456 31.0607L20.1452 31.06L20.1447 31.0593L20.1443 31.0587L20.1438 31.0581L20.1433 31.0574L20.1429 31.0567L20.1424 31.0561L20.142 31.0554L20.1415 31.0547L20.1411 31.0541L20.1406 31.0535L20.1402 31.0528C16.5588 25.786 16.8156 20.1099 21.9198 20.2765C21.6775 20.7856 21.8292 21.2147 22.3746 21.5636L24.8996 22.2472L27.2424 24.2779C27.1003 24.4563 26.9373 24.605 26.7475 24.9987C26.5425 25.4258 26.903 25.8692 26.9239 26.6109L26.1659 27.1934C25.657 27.8274 25.5026 28.0948 25.7662 29.1842C25.7991 29.1209 24.8367 31.0705 25.0931 31.9584C24.7197 31.986 24.3425 32 23.9621 32C23.7682 32 23.5753 31.9952 23.3831 31.9881L23.3837 31.9874C23.1467 31.9784 22.9109 31.9642 22.6767 31.9445L24.6665 29.0962C24.6816 28.8502 24.5774 28.6432 24.4314 28.4509L24.3408 28.2049L24.4285 28.4471L24.3084 28.3003C24.1405 28.5015 24.1863 28.7026 24.2626 28.9037C23.4664 28.5749 22.7922 28.0047 22.2382 27.1943C21.9627 26.7853 22.1715 26.3763 22.284 25.9673C22.3593 26.5775 22.5872 27.0532 22.9658 27.3956C22.5987 25.9673 23.1059 25.1293 24.0128 24.5601C22.7608 24.8861 21.0654 26.0216 20.643 30.1499C20.5882 30.6842 20.3871 30.9763 20.21 31.0759L20.2102 31.0758Z" fill="#F22738"/>
<path fill-rule="evenodd" clip-rule="evenodd" d="M11.849 14.525L11.8454 14.5266C11.1125 14.9278 10.4854 15.3184 9.91212 15.8146C9.64489 16.05 9.37222 16.3194 9.10992 16.6245C9.05619 16.6876 9.00269 16.7524 8.94941 16.8189L8.94992 16.817C8.84101 16.9522 8.73473 17.094 8.63205 17.2422L8.63216 17.2458L8.62089 17.2622L8.62274 17.2555L8.61898 17.2609L8.61915 17.2649C7.97219 18.2119 7.80086 18.9499 7.80058 18.9511C5.03928 18.9083 2.47162 19.9999 0.0135563 21.7293C-0.350864 14.3597 6.69364 8.49295 13.6997 8.01738C13.0156 8.02405 12.3536 8.06801 11.715 8.15123L11.7149 8.15134C11.6341 8.16183 11.5536 8.17304 11.4735 8.18482H11.4732C11.3931 8.19665 11.3133 8.20904 11.234 8.22216L11.2235 8.2239C9.69267 8.4773 8.30285 8.96862 7.07258 9.72877L0.924214 8.84307C3.68013 5.0077 9.86136 2.35937 16.7792 3.07151L16.7803 3.07089C17.088 3.10252 17.397 3.14043 17.7073 3.18551L17.0923 6.50724C17.2773 6.01524 17.4431 5.50901 17.5957 5.00658L18.1946 2.80477L18.2394 2.64019V2.64013L18.2499 2.60009H18.2499L18.2597 2.56107L18.2695 2.52226L18.2793 2.48357L18.289 2.44516L18.2987 2.40686L18.3082 2.36884L18.3094 2.36436C18.4942 1.63219 18.6524 1.01033 18.7972 0.591287L18.8039 0.568408C18.7696 -0.021774 19.0957 -0.242931 20.2142 0.347251L20.2275 0.355831C20.7084 0.594595 21.2212 0.970518 21.7268 1.45287H21.7269L21.7368 1.46229L21.752 1.47681L21.7666 1.491L21.777 1.50098L21.7966 1.52005L21.802 1.52526L21.8264 1.54932L21.8269 1.54977L21.8519 1.57449L21.8563 1.57887L21.8862 1.60859L21.9018 1.62429L21.9159 1.63859L21.9268 1.64947L21.9458 1.66881L21.9755 1.69926L21.9765 1.70027C21.996 1.72029 22.0155 1.74053 22.0349 1.76089L22.051 1.77771L22.0646 1.79201L22.0758 1.80389L22.0942 1.82346L22.1006 1.83025L22.1238 1.85515C22.5197 2.28058 22.9045 2.76792 23.2589 3.30192C23.6336 3.84539 23.9511 4.42313 24.2172 5.03333L24.2105 5.03041L24.2658 5.15821C22.6791 5.72265 21.8143 6.79619 21.4424 8.21964C22.7125 6.1736 24.2086 4.71583 26.6344 5.68256C28.8236 6.65887 29.2738 8.85838 29.0936 11.5012C29.433 10.7061 29.5207 9.84613 29.4349 8.94423C30.2741 9.34657 30.828 10.0177 30.7556 11.2801L30.3236 12.447C30.7031 11.8063 31.0826 11.2829 31.4621 11.0179C32.2517 10.7109 32.4643 11.6338 32.2822 13.1115C32.0848 13.8637 31.7349 14.4005 31.2342 14.7227L31.1885 13.3937C31.177 13.285 31.3296 13.0572 31.712 13.2927C31.7206 13.1249 31.6977 12.9571 31.4622 12.7893C31.1056 12.9104 30.87 13.1383 30.7556 13.4738C30.4409 14.3834 30.0691 15.1423 29.5722 15.5685L29.7543 14.5006L29.3214 15.5685C28.9114 16.0308 28.5625 16.0108 28.2735 15.5075C28.0037 14.2204 28.0571 12.3603 28.0466 10.6155C27.3982 6.91154 23.2064 6.25844 21.8753 9.95099C21.6627 11.1246 21.5244 12.2992 21.7379 13.4738C21.9125 13.8637 21.7837 14.0382 21.3508 13.9982C18.208 12.1591 14.7543 13.8838 16.6594 18.6288C15.5209 18.2952 14.7619 17.1644 14.1097 15.8096C14.4091 17.0309 15.0699 18.1856 16.523 19.1923C17.9238 19.8245 18.6828 20.3918 18.5045 20.8637C15.9642 22.4428 14.2928 24.3758 12.9099 26.6435L12.91 26.6436C12.1631 27.8685 11.5002 29.191 10.8305 30.6084C8.15417 28.3463 6.33387 22.4903 8.66519 17.9933L8.67153 17.9671L8.66457 17.9795L8.66519 17.9933V17.9932L8.6671 17.9896C8.68409 17.9569 8.70131 17.9243 8.71869 17.8918C8.73978 17.8523 8.76126 17.8129 8.78302 17.7737L8.81981 17.708L8.82065 17.7065C9.72256 16.1909 10.54 15.5568 11.8546 14.5217L11.8491 14.5247L11.849 14.5251V14.525Z" fill="#F22738"/>
<path fill-rule="evenodd" clip-rule="evenodd" d="M23.0833 14.3823C23.0146 14.3632 22.8993 14.5091 22.8249 14.7103C22.7505 14.9105 22.7467 15.0888 22.8154 15.1088C22.8841 15.1289 22.9994 14.982 23.0738 14.7818C23.1481 14.5816 23.152 14.4024 23.0833 14.3823V14.3823Z" fill="#F22738"/>
</svg>
